<svg enable-background="new 0 0 200 73.08" viewBox="0 0 200 73.08" xmlns="http://www.w3.org/2000/svg"><g fill="#009f59"><path d="m0 28.961c0-5.641 2-10.521 6-14.521 2.44-2.44 5.32-4.239 8.6-5.12l34.84-9.32-9.28 34.84c-.88 3.322-2.68 6.162-5.12 8.601-4 4-8.88 6-14.52 6s-10.52-2-14.52-6-6-8.84-6-14.48z"/><path d="m179.48 49.44c-5.643 0-10.521-2-14.521-6-2.439-2.438-4.238-5.319-5.12-8.601l-9.278-34.839 34.84 9.281c3.32.879 6.16 2.68 8.601 5.119 4 4 6 8.881 6 14.52 0 5.642-2 10.521-6 14.521s-8.882 5.999-14.522 5.999z"/><path d="m82.96 65.959c-4.68-4.68-7.08-10.397-7.08-17.08 0-4.039.88-7.959 2.88-11.438l21.24-36.68 21.24 36.721c2.039 3.479 2.88 7.358 2.88 11.438 0 6.642-2.399 12.359-7.08 17.08-4.681 4.681-10.399 7.08-17.08 7.08-6.68.002-12.32-2.438-17-7.121z"/></g></svg>