<svg enable-background="new 0 0 500 500" viewBox="0 0 500 500" xmlns="http://www.w3.org/2000/svg"><path d="m500 250c0-138.1-111.9-250-250-250s-250 111.9-250 250 111.9 250 250 250 250-111.9 250-250zm-208.9-125.7-17.3 12.5h-24.5c16.3 6.3 25 25.2 25 44.7 0 16.4-9.1 30.4-21.9 40.4-12.5 9.8-14.9 13.8-14.9 22.1 0 7.1 13.4 19.1 20.4 24.1 20.5 14.5 27.1 27.9 27.1 50.3 0 28-27.1 55.8-76.1 55.8-43 0-79.3-17.5-79.3-45.5 0-28.4 33.1-55.8 76.1-55.8 4.7 0 9-.1 13.4-.1-5.9-5.7-10.5-12.7-10.5-21.4 0-5.1 1.6-10.1 3.9-14.4-2.3.2-4.7.2-7.2.2-35.3 0-59-25.1-59-56.3 0-30.5 32.7-56.8 67.4-56.8h77.4zm79.4 131.7h-30.1v30.1h-24.3v-30.1h-30.1v-24.3h30.1v-30.1h24.3v30.1h30.1zm-124.2-72.9c-3.4-26.2-22.4-47.2-42.3-47.8s-33.3 19.5-29.9 45.7 22.4 47.9 42.3 48.5c20 .6 33.4-20.2 29.9-46.4zm-13.2 100.3c-5.9-1.9-12.3-3-19.3-3.1-29.7-.3-56.3 18.1-56.3 40.3 0 22.6 21.5 41.4 51.2 41.4 41.8 0 56.3-17.6 56.3-40.3 0-2.7-.3-5.4-1-8-3.2-12.8-14.8-19.1-30.9-30.3z" fill="#009f59"/></svg>