<?xml version="1.0" encoding="utf-8"?>
<!-- Generator: Adobe Illustrator 23.0.1, SVG Export Plug-In . SVG Version: 6.00 Build 0)  -->
<svg version="1.1" id="Calque_1" xmlns="http://www.w3.org/2000/svg" xmlns:xlink="http://www.w3.org/1999/xlink" x="0px" y="0px"
	 viewBox="0 0 500 500" style="enable-background:new 0 0 500 500;" xml:space="preserve">
<style type="text/css">
	.st0{fill:none;}
	.st1{fill:#01D7DA;}
	.st2{fill:#009F59;}
</style>
<rect y="0" class="st0" width="500" height="500"/>
<g>
	<path class="st1" d="M188.2,311.8l-4.5,7.8l-3.9-6.6c-0.6-1-1.9-1.4-2.9-0.8c-1,0.6-1.4,1.9-0.8,3l0,0l5.2,8.8l-8.2,14l-8.1-14
		l5.2-8.8c0.2-0.3,0.3-0.6,0.3-1c0-0.7-0.4-1.4-1-1.9c-1-0.6-2.3-0.3-2.9,0.7c0,0-0.1,0.1-0.1,0.1l-3.9,6.6l-4.5-7.8
		c-0.5-1.1-1.9-1.5-2.9-1c-1.1,0.5-1.5,1.9-1,2.9c0,0.1,0.1,0.2,0.1,0.2l4.6,7.9l-7.9,0.1c-1.2,0-2.2,0.9-2.2,2.1c0,0,0,0.1,0,0.1
		c0,1.2,1,2.2,2.2,2.2l10.4-0.1l8.1,13.9h-16.4l-5-8.8c-0.6-1.1-1.9-1.4-3-0.9c-1,0.6-1.4,1.9-0.8,2.9c0,0,0,0.1,0,0.1l3.8,6.7H139
		c-1.2,0-2.2,1-2.2,2.2c0,1.2,1,2.2,2.2,2.2h9l-3.9,6.9c-0.6,0.9-0.4,2.2,0.6,2.8c0.1,0,0.1,0.1,0.2,0.1c1.1,0.6,2.4,0.2,3-0.8
		l5.1-9h16.2L161,359l-10.2-0.1c-1.2,0-2.2,0.9-2.2,2.1c0,0,0,0,0,0v0.1c0,1.2,1,2.2,2.2,2.2l7.6,0.1l-4.4,7.7
		c-0.7,1-0.4,2.4,0.6,3.1s2.4,0.4,3.1-0.6c0.1-0.1,0.1-0.2,0.1-0.2l4.5-7.8l4.1,6.8c0.5,1,1.7,1.4,2.7,0.9c0.1-0.1,0.2-0.1,0.3-0.2
		c0.7-0.4,1-1.1,1-1.8c0-0.4-0.1-0.8-0.3-1.1l-5.2-8.9l8.2-14.2l8.2,14.2l-5.2,8.9c-0.6,1-0.2,2.4,0.8,3c1,0.6,2.2,0.3,2.9-0.7
		l4-6.8l4.5,7.8c0.6,1,1.9,1.4,2.9,0.8c0,0,0.1,0,0.1,0c0.7-0.4,1.1-1.1,1.1-1.9c0-0.4-0.1-0.8-0.3-1.1l-4.4-7.7l7.6-0.1
		c1.2,0,2.2-1,2.2-2.2v-0.1c0-1.2-1-2.1-2.2-2.1c0,0,0,0,0,0l-10.2,0.1l-8.2-14.3H193l5.1,9c0.5,1,1.8,1.4,2.8,0.9
		c0.1,0,0.2-0.1,0.2-0.1c0.7-0.3,1.2-1.1,1.1-1.9c0-0.4-0.1-0.7-0.2-1.1l-3.9-6.9h9.2c1.2,0,2.2-0.9,2.2-2.1c0,0,0-0.1,0-0.1
		c0-1.2-1-2.2-2.2-2.2h-9l3.8-6.7c0.2-0.3,0.2-0.7,0.2-1c0-0.8-0.4-1.5-1.1-1.9c-1.1-0.6-2.4-0.2-3,0.8c0,0,0,0,0,0.1l-4.9,8.8
		h-16.4l8.1-13.9l10.3,0.1c1.2,0,2.2-0.9,2.2-2.1c0,0,0-0.1,0-0.1c0-1.2-1-2.2-2.2-2.2l-7.9-0.1l4.6-7.9c0.2-0.3,0.2-0.7,0.2-1.1
		c0-0.7-0.3-1.4-1-1.8c-0.7-0.7-1.9-0.8-2.6-0.1C188.4,311.4,188.3,311.6,188.2,311.8L188.2,311.8z"/>
</g>
<rect y="0" class="st0" width="500" height="500"/>
<g>
	<path class="st1" d="M268.9,398.5l-7.4,12.8l-6.4-10.8c-1-1.7-3.1-2.3-4.8-1.3c0,0,0,0-0.1,0c-1.7,1-2.2,3.1-1.2,4.8c0,0,0,0,0,0
		l8.4,14.4l-13.3,22.8L231,418.4l8.4-14.4c0.3-0.5,0.5-1.1,0.5-1.7c0-1.2-0.7-2.4-1.7-3.1c-1.7-1-3.9-0.4-4.9,1.3c0,0,0,0,0,0
		l-6.4,10.8l-7.4-12.8c-1-1.7-3.2-2.3-4.9-1.3c-1.7,1-2.3,3.2-1.3,4.9c0,0,0,0,0,0l7.4,12.8l-12.8,0.2c-1.9-0.1-3.5,1.5-3.6,3.4
		c0,0,0,0.1,0,0.1c0,2,1.6,3.5,3.6,3.5L225,422l13.1,22.7h-26.7l-8.2-14.3c-0.9-1.7-3.1-2.4-4.9-1.4c0,0,0,0,0,0
		c-1.7,0.9-2.3,2.9-1.4,4.6c0,0.1,0.1,0.1,0.1,0.2l6.2,10.9h-14.6c-2,0-3.6,1.6-3.6,3.6c0,0,0,0,0,0c0,1.9,1.6,3.5,3.5,3.5
		c0,0,0.1,0,0.1,0h14.7l-6.3,11.3c-1,1.6-0.5,3.6,1.1,4.6c0.1,0,0.2,0.1,0.2,0.1c1.7,1,3.9,0.4,4.9-1.3l8.3-14.7H238L224.6,475
		l-16.6-0.1c-1.9-0.1-3.5,1.4-3.6,3.3c0,0.1,0,0.1,0,0.2v0.1c0,2,1.6,3.5,3.6,3.5l12.5,0.1l-7.2,12.5c-1,1.7-0.3,3.9,1.4,4.8
		c1.7,0.9,3.8,0.3,4.8-1.3l7.3-12.6l6.6,11c0.9,1.7,3,2.3,4.7,1.3c0.1,0,0.1-0.1,0.2-0.1c1.1-0.6,1.7-1.8,1.7-3
		c0-0.7-0.2-1.3-0.5-1.9l-8.5-14.4l13.3-23.2l13.4,23.2L249,493c-1,1.7-0.5,3.8,1.2,4.9c0,0,0,0,0,0c1.7,1,3.9,0.5,4.9-1.2l6.5-11
		l7.4,12.6c1,1.7,3.2,2.3,4.9,1.3c0,0,0,0,0,0c1.1-0.6,1.8-1.7,1.8-3c-0.1-0.6-0.3-1.2-0.5-1.8l-7.2-12.5l12.5-0.1
		c1.9,0,3.5-1.6,3.5-3.5v-0.1c0-2-1.6-3.5-3.6-3.5l-16.5,0.1L250.6,452h26.3l8.3,14.7c0.9,1.7,2.9,2.3,4.6,1.5
		c0.1-0.1,0.2-0.1,0.3-0.2c1.7-0.9,2.3-3,1.4-4.7l-6.4-11.3H300c1.9,0,3.5-1.4,3.5-3.3c0-0.1,0-0.1,0-0.2c0-2-1.5-3.6-3.5-3.6h-14.7
		l6.2-10.9c0.3-0.5,0.4-1.1,0.4-1.7c0.1-1.3-0.6-2.5-1.8-3.1c-1.7-1-3.9-0.3-4.9,1.4l-8,14.3h-26.7l13.1-22.7l16.8,0.1
		c1.9,0.1,3.5-1.5,3.6-3.4c0,0,0-0.1,0-0.1c0-1.9-1.4-3.5-3.3-3.5c-0.1,0-0.1,0-0.2,0l-12.9-0.2l7.5-12.8c0.3-0.6,0.4-1.2,0.4-1.9
		c0-1.2-0.6-2.4-1.7-3c-1.4-1.1-3.5-0.8-4.6,0.6C269.1,398.2,269,398.3,268.9,398.5L268.9,398.5z"/>
</g>
<path class="st1" d="M293.3,379.7l6.2-10.7l5.4,9c0.8,1.4,2.7,1.9,4.1,1.1c0,0,0,0,0,0c1.4-0.8,1.9-2.5,1.1-3.9
	c0-0.1-0.1-0.1-0.1-0.1l-7-12l11.1-19.1l11,19.1l-7,12c-0.3,0.4-0.4,0.9-0.4,1.4c0,1,0.5,2,1.4,2.6c1.4,0.8,3.2,0.4,4-1
	c0,0,0-0.1,0.1-0.1l5.4-9l6.2,10.7c0.8,1.4,2.7,1.9,4.1,1.1s1.9-2.7,1.1-4.1l-6.2-10.7l10.7-0.2c1.6,0,3-1.2,3-2.9c0,0,0,0,0,0
	c0-1.6-1.2-2.9-2.8-2.9c-0.1,0-0.1,0-0.2,0H330l-11-19h22.3l6.8,11.9c0.8,1.4,2.6,2,4.1,1.2c1.4-0.7,1.9-2.5,1.2-3.9
	c0,0,0-0.1-0.1-0.1l-5.1-9.1h12.2c1.7,0,3-1.3,3-3c0-1.6-1.2-2.9-2.8-2.9c-0.1,0-0.1,0-0.2,0H348l5.3-9.4c0.8-1.4,0.4-3.1-1-3.9
	c0,0-0.1-0.1-0.1-0.1c-1.4-0.8-3.3-0.3-4.1,1.1c0,0,0,0,0,0l-6.9,12.3h-22.1l11.2-19.4l13.8,0.1c1.5,0.1,2.9-1.1,3-2.6
	c0-0.1,0-0.2,0-0.3v-0.1c0-1.6-1.3-2.9-3-2.9c0,0,0,0,0,0l-10.4-0.1l6-10.4c0.8-1.4,0.4-3.1-1-4c0,0-0.1,0-0.1,0
	c-1.4-0.8-3.3-0.3-4.1,1.1c0,0,0,0,0,0l-6.1,10.6l-5.5-9.2c-0.8-1.4-2.6-1.9-4-1.1c0,0-0.1,0.1-0.1,0.1c-0.9,0.5-1.4,1.5-1.4,2.5
	c0,0.6,0.1,1.1,0.4,1.6l7.1,12.1l-11.1,19.3l-11.2-19.3l7.1-12.1c0.7-1.5,0.1-3.3-1.4-4c-1.3-0.6-2.8-0.2-3.7,0.9l-5.5,9.2
	l-6.2-10.6c-0.8-1.4-2.7-1.9-4.1-1.1c0,0,0,0,0,0c-0.9,0.5-1.5,1.4-1.5,2.5c0.1,0.5,0.2,1,0.4,1.5l6,10.4l-10.4,0.1
	c-1.6,0-2.9,1.3-2.9,2.9v0.1c0,1.6,1.3,2.9,2.9,2.9c0,0,0,0,0.1,0l13.8-0.1l11.1,19.4h-22l-6.9-12.3c-0.7-1.4-2.5-2-3.9-1.2
	c-0.1,0-0.2,0.1-0.2,0.1c-0.9,0.5-1.5,1.4-1.5,2.5c0,0.5,0.1,1,0.3,1.4l5.3,9.4h-12.5c-1.6-0.3-3.2,0.8-3.5,2.4s0.8,3.2,2.4,3.5
	c0.4,0.1,0.7,0.1,1.1,0h12.3l-5.1,9.1c-0.2,0.4-0.3,0.9-0.3,1.4c0,1.1,0.5,2.1,1.5,2.6c1.4,0.8,3.3,0.3,4.1-1.2c0,0,0,0,0,0
	l6.7-11.9h22.3l-11,19l-14-0.1c-1.6,0-3,1.2-3,2.9c0,0,0,0,0,0c0,1.6,1.2,2.9,2.8,2.9c0,0,0.1,0,0.1,0l10.8,0.2l-6.3,10.7
	c-0.2,0.5-0.3,1.1-0.3,1.6c0,1,0.5,2,1.4,2.5c1.4,1,3.3,0.6,4.3-0.8C293.2,379.8,293.3,379.7,293.3,379.7L293.3,379.7z"/>
<path class="st2" d="M500,155c0-63.4-54.7-114.9-122.1-114.9c-11.6,0-23.1,1.5-34.2,4.6C326.9,18.1,294.2,0,256.6,0
	c-48.1,0-88.1,29.5-97.1,68.6c-14.7-6.1-30.5-9.3-46.4-9.3C50.6,59.4,0,106.5,0,164.6c0,1.2,0.1,2.4,0.1,3.7c0,0.7-0.1,1.3-0.1,2
	C0,225.1,44.8,270,99.6,270H378C445.4,269.8,500,218.4,500,155"/>
<path class="st2" d="M95.5,339.5L82,316c-2.7-4.6-8.6-6.2-13.2-3.5c-1.4,0.8-2.7,2-3.5,3.5l-14.8,25.6h0.1
	c-7.2,12.8-2.6,28.9,10.1,36.1s28.9,2.6,36.1-10.1C101.8,358.7,101.2,347.8,95.5,339.5L95.5,339.5z"/>
<path class="st2" d="M95.5,440.5L82,417c-2.7-4.6-8.6-6.2-13.2-3.5c-1.4,0.8-2.7,2-3.5,3.5l-14.8,25.6h0.1
	c-7.2,12.8-2.6,28.9,10.1,36.1s28.9,2.6,36.1-10.1C101.8,459.7,101.2,448.8,95.5,440.5L95.5,440.5z"/>
<path class="st2" d="M450.5,339.5L437,316c-2.7-4.6-8.6-6.2-13.2-3.5c-1.4,0.8-2.7,2-3.5,3.5l-14.8,25.6h0.1
	c-7.2,12.8-2.6,28.9,10.1,36.1s28.9,2.6,36.1-10.1C456.8,358.7,456.2,347.8,450.5,339.5L450.5,339.5z"/>
<path class="st2" d="M450.5,440.5L437,417c-2.7-4.6-8.6-6.2-13.2-3.5c-1.4,0.8-2.7,2-3.5,3.5l-14.8,25.6h0.1
	c-7.2,12.8-2.6,28.9,10.1,36.1s28.9,2.6,36.1-10.1C456.8,459.7,456.2,448.8,450.5,440.5L450.5,440.5z"/>
</svg>
