<svg enable-background="new 0 0 500 500" viewBox="0 0 500 500" xmlns="http://www.w3.org/2000/svg" xmlns:xlink="http://www.w3.org/1999/xlink"><clipPath id="a"><path d="m0 0h500v500h-500z"/></clipPath><g fill="#009f59"><path clip-path="url(#a)" d="m27 130.6c14.9 0 27-12.1 27-27s-12.1-27-27-27-27 12.1-27 27 12.1 27 27 27z"/><path clip-path="url(#a)" d="m27 275.5c14.9 0 27-12.1 27-27s-12.1-27-27-27-27 12.1-27 27 12.1 27 27 27z"/><path clip-path="url(#a)" d="m27 423.5c14.9 0 27-12.1 27-27s-12.1-27-27-27-27 12.1-27 27 12.1 27 27 27z"/><path d="m477.8 132.6h-332.8c-12.2 0-22.2-12.3-22.2-27.3 0-15 10-27.3 22.2-27.3h332.8c12.2 0 22.2 12.2 22.2 27.3 0 15-10 27.3-22.2 27.3z"/><path d="m477.8 277.1h-332.8c-12.2 0-22.2-12.3-22.2-27.3 0-15 10-27.3 22.2-27.3h332.8c12.2 0 22.2 12.3 22.2 27.3 0 15-10 27.3-22.2 27.3z"/><path d="m477.8 421.6h-332.8c-12.2 0-22.2-12.3-22.2-27.3 0-15 10-27.3 22.2-27.3h332.8c12.2 0 22.2 12.3 22.2 27.3 0 15-10 27.3-22.2 27.3z"/></g></svg>