<svg enable-background="new 0 0 500 500" viewBox="0 0 500 500" xmlns="http://www.w3.org/2000/svg" xmlns:xlink="http://www.w3.org/1999/xlink"><clipPath id="a"><path d="m0 0h500v500h-500z"/></clipPath><g fill="#009f59"><path clip-path="url(#a)" d="m335.4 145.3c-7.1 0-14.1.9-21 2.8l-4.3 1.2-2.4-3.8c-10.3-16.4-30.4-26.7-52.3-26.7-28.3 0-52.7 17.1-58.1 40.6l-1.6 7-6.6-2.8c-8.9-3.7-18.4-5.6-28.2-5.6-37.8 0-68.5 28.4-68.5 63.4v1.8.5.2.9.3c0 2.2.1 4.4.4 6.5.6.1 1.1.2 1.7.4 13-17.8 35.6-28.6 60-28.6 31.3 0 58.7 17.9 67.9 43.4 8.5-2.8 17.5-4.2 26.6-4.2h1 1c9.2 0 18.1 1.4 26.6 4.2 9.3-25.5 36.7-43.4 67.9-43.4 24.4 0 47 10.9 60 28.6.7-.2 1.5-.3 2.3-.5 1.4-5.3 2.1-10.8 2.1-16.4 0-38.5-33.4-69.8-74.5-69.8z"/><path clip-path="url(#a)" d="m154.5 215.3c-21.9 0-42 10.2-52.3 26.7l-2.4 3.8-4.3-1.2c-6.8-1.9-13.9-2.8-21-2.8-41.1-.1-74.5 31.2-74.5 69.6s33.4 69.7 74.4 69.7h.8 127.2c-19.3-12.9-32-34.8-32-59.7 0-.4 0-.7 0-1.1 0-.1 0-.1 0-.2v-.2c0-.7-.1-1.5-.1-2.2 0-28.2 16.6-52.8 41.1-65.7-6.9-21.5-30.2-36.7-56.9-36.7z"/><path d="m425.6 381.2c41 0 74.4-31.3 74.4-69.7s-33.4-69.7-74.5-69.7c-7.1 0-14.1.9-21 2.8l-4.3 1.2-2.4-3.8c-10.3-16.4-30.4-26.7-52.3-26.7-28.3 0-52.7 17.1-58.1 40.6l-1.6 7-6.6-2.8c-8.9-3.7-18.4-5.6-28.2-5.6-37.8 0-68.5 28.4-68.5 63.4v1.8.6.2.9.3c0 32.9 26.8 59.7 59.7 59.7z"/></g></svg>