<svg enable-background="new 0 0 500 500" viewBox="0 0 500 500" xmlns="http://www.w3.org/2000/svg" xmlns:xlink="http://www.w3.org/1999/xlink"><clipPath id="a"><path d="m0 0h500v500h-500z"/></clipPath><g fill="#009f59"><path clip-path="url(#a)" d="m362.9 258.9c42 1.3 73.6 21.9 92.6 60 17.1 34.4 17.2 68.9-5.7 100.9-22 30.9-53.3 41.2-89.9 34.9-28.2-4.8-51.4-30.4-57-60.5-6.8-36.5 19.8-72.8 54.9-74.8 10.5-.6 21.1-.5 22.9 13.2 1.5 11.5-5.6 17.4-16 18.9-20.3 2.9-30.7 14.4-29.3 34.5 1.5 21.5 18.7 36.6 40.4 37.5 43.6 1.9 71.1-42.4 52.5-85.2-13.9-32-39.6-46.1-73.7-46.1-75.9-.1-321.2-.2-326.7 0-13.7.1-27.2.3-27-17 .1-16 14.7-16.3 26.7-16.2 32.4 0 335.3-.1 335.3-.1"/><path clip-path="url(#a)" d="m394 240.5c42-1.3 74-21.3 92.9-59.4 17.1-34.4 17.2-68.9-5.7-100.9-22-30.9-53.3-41.2-89.9-34.9-28.2 4.8-51.4 30.4-57 60.5-6.8 36.5 19.8 72.8 54.9 74.8 10.5.6 21.1.5 22.9-13.2 1.5-11.5-5.6-17.4-16-18.9-20.3-2.9-30.7-14.4-29.3-34.5 1.5-21.5 18.7-36.6 40.4-37.5 43.6-1.9 71.1 42.4 52.5 85.2-13.9 32-39.6 46.1-73.7 46.1 1.4 0-224.9 0-225.6 0-12.6 0-27.2-.3-27 17 .1 16 14.5 15.6 25.9 15.6 32.4 0 234.7.1 234.7.1"/><path d="m158.8 348.3h-92.5c-7.9 0-14.3-7.5-14.3-16.7s6.4-16.7 14.3-16.7h92.5c7.9 0 14.3 7.5 14.3 16.7s-6.4 16.7-14.3 16.7"/><path d="m279.9 187.5h-92.5c-7.9 0-14.3-7.5-14.3-16.7s6.4-16.7 14.3-16.7h92.5c7.9 0 14.3 7.5 14.3 16.7.1 9.1-6.4 16.7-14.3 16.7"/></g></svg>