<svg version="1.0" id="Calque_1" xmlns="http://www.w3.org/2000/svg" xmlns:xlink="http://www.w3.org/1999/xlink" x="0px" y="0px"
	 viewBox="0 0 500 318" style="enable-background:new 0 0 500 318;" xml:space="preserve">
<g>
	<path style="fill:#009F59;" d="M424.9,157.3c0-45.5-36.9-82.5-82.5-82.5c-39.8,0-72.9,28.1-80.7,65.6c0.3,0.4,0.6,0.7,0.9,1.1
		c7.5-1.6,15.1-2.4,22.8-2.4c53.1,0,97.1,37.9,103.3,86.5C410.5,210.8,424.9,185.7,424.9,157.3L424.9,157.3z"/>
	<path style="fill:#009F59;" d="M339.7,56.6c4.2,0,7.6-3.4,7.6-7.6V7.6c0-4.2-3.4-7.6-7.6-7.6c-4.2,0-7.6,3.4-7.6,7.6V49
		C332.1,53.2,335.5,56.6,339.7,56.6L339.7,56.6z"/>
	<path style="fill:#009F59;" d="M422.7,85.1l29.3-29.3c3-3,3-7.8,0-10.8c-3-3-7.8-3-10.8,0l-29.3,29.3c-3,3-3,7.8,0,10.8
		C414.8,88.1,419.7,88.1,422.7,85.1L422.7,85.1z"/>
	<path style="fill:#009F59;" d="M259.5,85.1c3,3,7.8,3,10.8,0c3-3,3-7.8,0-10.8L241,45c-3-3-7.8-3-10.8,0c-3,3-3,7.8,0,10.8
		L259.5,85.1L259.5,85.1z"/>
	<path style="fill:#009F59;" d="M424,226.3c-3-3-7.8-3-10.8,0c-3,3-3,7.8,0,10.8l29.3,29.3c3,3,7.8,3,10.8,0c3-3,3-7.8,0-10.8
		L424,226.3L424,226.3z"/>
	<path style="fill:#009F59;" d="M492.4,149.7H451c-4.2,0-7.6,3.4-7.6,7.6c0,4.2,3.4,7.6,7.6,7.6h41.4c4.2,0,7.6-3.4,7.6-7.6
		C500,153.1,496.6,149.7,492.4,149.7L492.4,149.7z"/>
	<path style="fill:#009F59;" d="M285.4,156.9c-8.2,0-16.4,1.1-24.3,3.3l-6.4,1.8l-3.5-5.6c-11.9-18.9-35-30.6-60.3-30.6
		c-32.6,0-60.7,19.6-66.9,46.5l-2.4,10.3l-9.8-4.1c-10.3-4.3-21.3-6.5-32.7-6.5C35.5,171.9,0,204.7,0,245c0,0.6,0,1.3,0,1.9l0,1
		c0,0.4,0,0.8-0.1,1.3c0,38,30.8,68.8,68.7,68.8l216.8,0c47.5,0,86.1-36.2,86.1-80.5C371.6,193.1,332.9,156.9,285.4,156.9
		L285.4,156.9z"/>
</g>
</svg>
