<?xml version="1.0" encoding="utf-8"?>
<!-- Generator: Adobe Illustrator 23.0.1, SVG Export Plug-In . SVG Version: 6.00 Build 0)  -->
<svg version="1.1" id="Calque_1" xmlns="http://www.w3.org/2000/svg" xmlns:xlink="http://www.w3.org/1999/xlink" x="0px" y="0px"
	 viewBox="0 0 500 500" style="enable-background:new 0 0 500 500;" xml:space="preserve">
<style type="text/css">
	.st0{fill:#009F59;}
	.st1{clip-path:url(#SVGID_2_);}
	.st2{clip-path:url(#SVGID_4_);}
	.st3{fill:#01D7DA;}
</style>
<path class="st0" d="M500,155c0-63.4-54.7-114.9-122.1-114.9c-11.6,0-23.1,1.5-34.2,4.6C326.9,18.1,294.2,0,256.6,0
	c-48.1,0-88.1,29.5-97.1,68.6c-14.7-6.1-30.5-9.3-46.4-9.3C50.6,59.4,0,106.5,0,164.6c0,1.2,0.1,2.4,0.1,3.7c0,0.7-0.1,1.3-0.1,2
	C0,225.1,44.8,270,99.6,270H378C445.4,269.8,500,218.4,500,155"/>
<path class="st0" d="M200.8,333.6l-13.5-23.5c-2.7-4.6-8.6-6.2-13.2-3.5c-1.4,0.8-2.7,2-3.5,3.5l-14.8,25.6h0.1
	c-7.2,12.8-2.6,28.9,10.1,36.1c12.8,7.2,28.9,2.6,36.1-10.1C207.1,352.8,206.5,341.9,200.8,333.6L200.8,333.6z"/>
<g>
	<defs>
		<rect id="SVGID_1_" y="0" width="500" height="500"/>
	</defs>
	<clipPath id="SVGID_2_">
		<use xlink:href="#SVGID_1_"  style="overflow:visible;"/>
	</clipPath>
	<g class="st1">
		<path class="st0" d="M341.6,332.7l-19.1-33c-2.7-4.6-8.6-6.2-13.2-3.5c-1.4,0.8-2.7,2-3.5,3.5l-20.6,35.6h0.1
			c-3.1,5.5-4.6,11.7-4.2,18c0.9,18.3,16.5,32.5,34.8,31.6c17.7-0.9,31.6-15.5,31.6-33.3C347.6,344.8,345.5,338.2,341.6,332.7
			L341.6,332.7z"/>
	</g>
</g>
<g>
	<defs>
		<rect id="SVGID_3_" y="0" width="500" height="500"/>
	</defs>
	<clipPath id="SVGID_4_">
		<use xlink:href="#SVGID_3_"  style="overflow:visible;"/>
	</clipPath>
	<g class="st2">
		<path class="st0" d="M254.9,373.8c-2.7-4.6-8.6-6.2-13.2-3.5c-1.4,0.8-2.7,2-3.5,3.5l-32.5,56.3h0.1c-4.2,7.5-6.3,16-6,24.6
			c0.8,25.9,22.5,46.2,48.4,45.4s46.2-22.5,45.4-48.4c-0.3-9.1-3.2-17.8-8.4-25.3L254.9,373.8z"/>
	</g>
</g>
<circle class="st3" cx="71.4" cy="327.7" r="22.4"/>
<circle class="st3" cx="413.4" cy="327.7" r="22.4"/>
<circle class="st3" cx="413.4" cy="428.7" r="22.4"/>
<circle class="st3" cx="71.4" cy="428.7" r="22.4"/>
</svg>
