<svg enable-background="new 0 0 500 500" viewBox="0 0 500 500" xmlns="http://www.w3.org/2000/svg"><g fill="#009f59"><path d="m125.1 408.7h-108c-5.9 0-10.6-4.8-10.6-10.6 0-5.9 4.8-10.6 10.6-10.6h108c5.9 0 10.6 4.8 10.6 10.6 0 5.8-4.7 10.6-10.6 10.6z"/><path d="m349.6 408.6h-191c-5.8 0-10.6-4.7-10.6-10.6 0-5.8 4.7-10.6 10.6-10.6h191.1c5.8 0 10.6 4.7 10.6 10.6-.1 5.8-4.8 10.6-10.7 10.6z"/><path d="m241.6 442h108c5.9 0 10.6-4.8 10.6-10.6 0-5.9-4.8-10.6-10.6-10.6h-108c-5.9 0-10.6 4.8-10.6 10.6-.1 5.9 4.7 10.6 10.6 10.6z"/><path d="m17.1 441.9h191.1c5.8 0 10.6-4.7 10.6-10.6 0-5.8-4.7-10.6-10.6-10.6h-191.1c-5.8 0-10.6 4.7-10.6 10.6 0 5.9 4.7 10.6 10.6 10.6z"/><path d="m371.4 331.8v-.1c0-47.1-40.6-85.3-90.7-85.3-8.8 0-17.3 1.2-25.4 3.4-12.4-19.8-36.7-33.2-64.7-33.2-35.7 0-65.4 21.9-72.1 51-10.5-4.4-22.2-6.9-34.4-6.9-46.4 0-84 35-84 78.2 0 .9 0 1.8.1 2.7 0 .5-.1 1-.1 1.5 0 11.2 2.5 21.8 7 31.3h352.2c7.6-12.6 12-27.1 12.1-42.6z"/></g><path d="m424.9 248.3c0-45.6-36.9-82.5-82.5-82.5-39.8 0-72.9 28.1-80.7 65.6.3.4.6.7.9 1.1 7.5-1.6 15.1-2.4 22.8-2.4 53.1 0 97.1 37.9 103.3 86.5 21.8-14.8 36.2-39.9 36.2-68.3z" fill="#ffdc59"/><path d="m339.7 147.6c4.2 0 7.6-3.4 7.6-7.6v-41.4c0-4.2-3.4-7.6-7.6-7.6s-7.6 3.4-7.6 7.6v41.4c0 4.2 3.4 7.6 7.6 7.6z" fill="#ffdc59"/><path d="m422.7 176.1 29.3-29.3c3-3 3-7.8 0-10.8s-7.8-3-10.8 0l-29.3 29.3c-3 3-3 7.8 0 10.8 3 2.9 7.8 2.9 10.8 0z" fill="#ffdc59"/><path d="m259.5 176.1c3 3 7.8 3 10.8 0s3-7.8 0-10.8l-29.3-29.3c-3-3-7.8-3-10.8 0s-3 7.8 0 10.8z" fill="#ffdc59"/><path d="m0 0h500v500h-500z" fill="none"/><path d="m424.1 317.3c-3-3-7.8-3-10.8 0s-3 7.8 0 10.8l29.3 29.3c3 3 7.8 3 10.8 0s3-7.8 0-10.8z" fill="#ffdc59"/><path d="m0 0h500v500h-500z" fill="none"/><path d="m492.4 240.6h-41.4c-4.2 0-7.6 3.4-7.6 7.6s3.4 7.6 7.6 7.6h41.4c4.2 0 7.6-3.4 7.6-7.6s-3.4-7.6-7.6-7.6z" fill="#ffdc59"/></svg>