<svg enable-background="new 0 0 501.1 500" viewBox="0 0 501.1 500" xmlns="http://www.w3.org/2000/svg" xmlns:xlink="http://www.w3.org/1999/xlink"><clipPath id="a"><path d="m0 0h500v500h-500z"/></clipPath><path clip-path="url(#a)" d="m491.8 443.1-113.4-113.4c24.3-34 38.6-75.7 38.6-120.6 0-114.7-93.3-208-208-208s-208 93.3-208 208 93.3 208 208 208c46 0 88.5-15 123-40.4l113.1 113.1c6 6 14 9.3 22.5 9.3s16.5-3.3 22.5-9.3l1.7-1.7c6-6 9.3-14 9.3-22.5s-3.3-16.5-9.3-22.5zm-282.7-86.8c-81.2 0-147.2-66-147.2-147.2s66-147.2 147.2-147.2 147.2 66 147.2 147.2-66.1 147.2-147.2 147.2z" fill="#009f59"/></svg>