<svg enable-background="new 0 0 500 500" viewBox="0 0 500 500" xmlns="http://www.w3.org/2000/svg"><path d="m500 250c0-138.1-111.9-250-250-250s-250 111.9-250 250 111.9 250 250 250 250-111.9 250-250zm-154.3-57.3c10.4-1.2 20.2-4 29.4-8.1-6.9 10.3-15.5 19.3-25.6 26.5.1 2.2.1 4.4.1 6.6 0 67.7-51.5 145.8-145.8 145.8-28.9 0-55.9-8.5-78.6-23 4 .5 8.1.7 12.2.7 24 0 46.1-8.2 63.6-21.9-22.4-.4-41.3-15.2-47.9-35.6 3.1.6 6.3.9 9.6.9 4.7 0 9.2-.6 13.5-1.8-23.5-4.7-41.1-25.4-41.1-50.2v-.6c6.9 3.8 14.8 6.1 23.2 6.4-13.8-9.2-22.8-24.9-22.8-42.7 0-9.4 2.5-18.2 6.9-25.8 25.3 31 63 51.4 105.6 53.5-.9-3.7-1.3-7.6-1.3-11.7 0-28.3 22.9-51.2 51.2-51.2 14.7 0 28.1 6.2 37.4 16.2 11.7-2.3 22.6-6.5 32.6-12.4-3.5 12.1-11.6 22.1-22.2 28.4z" fill="#009f59"/></svg>