<svg enable-background="new 0 0 500 205.2" viewBox="0 0 500 205.2" xmlns="http://www.w3.org/2000/svg"><g fill="#009f59"><path d="m133.2 0-41.3 71.4c-3.7 6.3-5.5 13.7-5.5 22 0 12.8 4.6 24 13.7 33.1s20.2 13.7 33.1 13.7c12.8 0 24-4.6 33.1-13.7s13.7-20.2 13.7-33.1c0-8.3-1.9-15.7-5.5-22z"/><path d="m368.9 0-41.3 71.4c-3.7 6.3-5.5 13.7-5.5 22 0 12.8 4.6 24 13.7 33.1s20.2 13.7 33.1 13.7 24-4.6 33.1-13.7 13.7-20.2 13.7-33.1c0-8.3-1.9-15.7-5.5-22z"/><path d="m251 2.1-49.3 85.2c-4.4 7.5-6.6 16.4-6.6 26.3 0 15.3 5.5 28.6 16.4 39.5s24.2 16.4 39.5 16.4 28.6-5.5 39.5-16.4 16.4-24.2 16.4-39.5c0-9.9-2.2-18.8-6.6-26.3z"/><path d="m251 169.6c15.3 0 28.6-5.5 39.5-16.4 9.2-9.2 14.5-20.1 16-32.4h-111c1.5 12.4 6.8 23.2 16 32.4 10.9 10.9 24.2 16.4 39.5 16.4z"/><path d="m133.2 140.2c12.8 0 24-4.6 33.1-13.7 1.8-1.8 3.3-3.7 4.8-5.6h-75.8c1.4 1.9 3 3.8 4.8 5.6 9.1 9 20.3 13.7 33.1 13.7z"/><path d="m368.9 140.2c12.8 0 24-4.6 33.1-13.7 1.8-1.8 3.3-3.7 4.8-5.6h-75.8c1.4 1.9 3 3.8 4.8 5.6 9.1 9 20.2 13.7 33.1 13.7z"/><path d="m458.1 120.8h-37.3c-2.7 5-6.2 9.6-10.5 13.9-11.4 11.4-25.3 17.2-41.4 17.2s-30-5.8-41.4-17.2c-3.7-3.7-6.8-7.8-9.3-12-1.8 14.8-8.3 27.8-19.2 38.8-13.2 13.2-29.3 19.9-47.9 19.9s-34.7-6.7-47.9-19.9c-11-11-17.4-24.1-19.3-38.9-2.5 4.3-5.6 8.3-9.4 12.1-11.4 11.4-25.3 17.2-41.4 17.2s-30-5.8-41.4-17.2c-4.3-4.3-7.8-8.9-10.5-13.9h-39.3c-23 0-41.9 19-41.9 42.2s18.9 42.2 41.9 42.2h416.2c23.1 0 41.9-19 41.9-42.2s-18.9-42.2-41.9-42.2z"/></g></svg>