<svg enable-background="new 0 0 500 500" viewBox="0 0 500 500" xmlns="http://www.w3.org/2000/svg" xmlns:xlink="http://www.w3.org/1999/xlink"><clipPath id="a"><path d="m0 0h500v500h-500z"/></clipPath><g fill="#009f59"><path clip-path="url(#a)" d="m498.2 149.3c0 59.3-51.6 107.5-115 107.6h-289.6c-50.6 0-91.7-41.2-91.7-92 0-.6.1-1.1.1-1.7v-1.4c0-.8-.1-1.7-.1-2.6 0-53.8 47.4-97.6 105.7-97.6 15.2 0 29.9 2.9 43.6 8.7l13.1 5.5 3.2-13.8c8.2-36 45.8-62.1 89.4-62.1 33.8 0 64.7 15.7 80.5 40.9l4.7 7.5 8.5-2.3c10.6-2.9 21.5-4.4 32.4-4.4 63.5.1 115.2 48.4 115.2 107.7z"/><path clip-path="url(#a)" d="m339.4 297.5h-68.2c-2.7 0-4.4-2.9-2.9-5.1l8.7-13.1h-82.1l-36.9 70.8c-1.1 2.2.5 4.8 3.1 4.8h59.8c2.5 0 4.1 2.4 3.2 4.6l-59.7 136c-1.5 3.5 3.3 6.3 5.8 3.4l171.9-195.9c1.9-2.2.3-5.5-2.7-5.5z"/><path d="m108.4 324.9-22-38.1c-6-10.4-21-10.4-27 0l-23.9 41.5h.1c-3.8 6.8-5.9 14.7-5.5 23.1 1 22.2 19.2 40.2 41.4 41 24.5.9 44.6-18.7 44.6-43 0-9.1-2.8-17.6-7.7-24.5z"/><path d="m462.3 324.9-22-38.1c-6-10.4-21-10.4-27 0l-23.9 41.5h.1c-3.8 6.8-5.9 14.7-5.5 23.1 1 22.2 19.2 40.2 41.4 41 24.5.9 44.6-18.7 44.6-43 0-9.1-2.9-17.6-7.7-24.5z"/></g></svg>