<svg enable-background="new 0 0 500 500" viewBox="0 0 500 500" xmlns="http://www.w3.org/2000/svg"><path d="m1.6 1.6h496.9v496.9h-496.9z" fill="none"/><path d="m367.9 304c-28.3 67.1-105.7 98.5-172.7 70.2s-98.6-105.7-70.2-172.8 105.7-98.5 172.7-70.2l.3.1c66.8 28.6 98 105.7 69.9 172.7z" fill="#ffdc59"/><path d="m1.6 1.6h496.9v496.9h-496.9z" fill="none"/><g fill="#ffdc59"><path d="m242.2 91.9c-6.7 0-12.1-5.4-12.2-12.1v-66.1c0-6.7 5.5-12.1 12.2-12.1 6.7 0 12.1 5.4 12.2 12.1v66.1c-.1 6.7-5.5 12-12.2 12.1z"/><path d="m357.5 137.3c-4.7-4.7-4.8-12.4-.1-17.1l.1-.1 46.8-46.7c4.7-4.7 12.4-4.7 17.1 0 4.7 4.7 4.8 12.4.1 17.1l-.1.1-46.8 46.7c-4.7 4.7-12.3 4.8-17.1 0z"/><path d="m67.1 73.4c-4.7 4.7-4.7 12.4 0 17.2l46.9 46.7c4.7 4.7 12.4 4.7 17.1 0 4.7-4.7 4.7-12.4 0-17.2l-46.9-46.7c-4.7-4.6-12.4-4.6-17.1 0z"/></g><path d="m244.3 408.1c-6.7 0-12.1 5.4-12.2 12.1v66.1c0 6.7 5.5 12.1 12.2 12.1 6.7 0 12.2-5.4 12.2-12.1v-66c0-6.7-5.5-12.1-12.2-12.2z" fill="#009f59"/><path d="m359.7 362.7c-4.7 4.7-4.7 12.4 0 17.2l46.9 46.7c4.7 4.7 12.4 4.7 17.1 0 4.7-4.7 4.8-12.4.1-17.1l-.1-.1-46.7-46.7c-4.7-4.7-12.4-4.7-17.2 0z" fill="#ffdc59"/><path d="m69.2 426.6c-4.7-4.7-4.7-12.4 0-17.2l46.9-46.7c4.7-4.7 12.4-4.7 17.1 0 4.7 4.7 4.7 12.4 0 17.2l-46.9 46.7c-4.7 4.6-12.3 4.6-17.1 0z" fill="#009f59"/><path d="m498.4 252.6c0 6.7-5.5 12.1-12.2 12.1h-66.2c-6.7 0-12.1-5.4-12.2-12.1 0-6.7 5.5-12.1 12.2-12.1h66.2c6.7-.1 12.1 5.3 12.2 11.9z" fill="#ffdc59"/><path d="m92.1 252.6c0 6.7-5.5 12.1-12.2 12.1h-66.1c-6.7 0-12.1-5.4-12.2-12.1 0-6.7 5.5-12.1 12.2-12.1h66.2c6.7 0 12.1 5.3 12.1 12z" fill="#ffdc59"/><path d="m270.4 354.7c-7.6 0-15.2 1-22.5 3l-5.9 1.7-3.2-5.2c-11-17.5-32.4-28.3-55.9-28.3-30.2 0-56.2 18.1-61.9 43.1l-2.2 9.5-9.1-3.8c-9.6-4-19.9-6-30.3-6-40.5-.1-73.3 30.3-73.3 67.6v2.7c0 .4 0 .8-.1 1.2 0 35.2 28.5 63.7 63.6 63.8h200.7c44 0 79.7-33.5 79.7-74.5s-35.6-74.7-79.6-74.8z" fill="#009f59" stroke="#fff" stroke-miterlimit="10" stroke-width="14"/></svg>