<svg enable-background="new 0 0 500 500" viewBox="0 0 500 500" xmlns="http://www.w3.org/2000/svg"><path d="m100.5 2h397.5v397.5h-397.5z" fill="none"/><path d="m393.6 247.9c-22.7 53.7-84.5 78.8-138.2 56.1s-78.8-84.5-56.1-138.2 84.5-78.8 138.2-56.1l.2.1c53.4 22.8 78.4 84.5 55.9 138.1z" fill="#ffdc59"/><path d="m100.5 2h397.5v397.5h-397.5z" fill="none"/><g fill="#ffdc59"><path d="m293 78.3c-5.4 0-9.7-4.3-9.8-9.7v-52.9c0-5.4 4.4-9.7 9.8-9.7 5.4 0 9.7 4.3 9.8 9.7v52.9c-.1 5.3-4.4 9.6-9.8 9.7z"/><path d="m385.3 114.6c-3.8-3.8-3.8-9.9 0-13.7v-.1l37.4-37.4c3.8-3.8 9.9-3.8 13.7 0 3.8 3.8 3.8 9.9.1 13.7l-37.4 37.4c-3.8 3.9-10 3.9-13.8.1z"/><path d="m152.9 63.5c-3.8 3.8-3.8 9.9 0 13.7l37.5 37.4c3.8 3.8 9.9 3.8 13.7 0 3.8-3.8 3.8-9.9 0-13.7l-37.4-37.4c-3.8-3.7-9.9-3.7-13.8 0z"/><path d="m498 206.8c0 5.4-4.4 9.7-9.8 9.7h-52.9c-5.4 0-9.7-4.3-9.8-9.7 0-5.4 4.4-9.7 9.8-9.7h53c5.3-.1 9.7 4.2 9.8 9.6z"/><path d="m173 206.8c0 5.4-4.4 9.7-9.8 9.7h-52.9c-5.4 0-9.7-4.3-9.8-9.7 0-5.4 4.4-9.7 9.8-9.7h52.9c5.3 0 9.7 4.3 9.7 9.6.1 0 .1 0 .1.1z"/></g><path d="m334.1 235c-7 0-13.9 1-20.6 3l-4.6 1.3-2.5-4.4c-10.2-17.7-29.8-28.8-51.3-28.8-27.8 0-51.8 18.4-57 43.8l-1.7 8.3-7-3.2c-8.7-4-18.2-6.1-27.8-6.1-37.1 0-67.3 30.7-67.3 68.4v3.6c0 2.7.2 5.2.5 7.7.5.1 1 .1 1.4.3 13-19.4 35.4-31.1 59.5-31.1 30.9 0 58.1 19.4 67.6 47.1 8.4-3 17.2-4.5 26.1-4.5h1.5c8.9 0 17.7 1.5 26.1 4.5 9.3-27.8 36.5-47.1 67.6-47.1 24.1 0 46.6 11.7 59.5 31.1.3-.1.7-.2 1-.1 1.5-6.1 2.3-12.3 2.3-18.5-.1-41.5-32.8-75.4-73.3-75.3z" fill="#009f59" stroke="#fff" stroke-miterlimit="10" stroke-width="12"/><path d="m155.7 304.2c-21.6 0-41.2 11.1-51.3 28.8l-2.6 4.4-4.6-1.3c-6.7-2-13.6-3.1-20.6-3.1-40.4-.1-73.2 33.8-73.2 75.2s32.7 75.2 73.1 75.4h124.8c-18.4-14.3-30.6-37.8-30.6-64.4v-4c-.2-29.6 15.5-57 41-71.9-7.2-23-29.9-39.1-56-39.1z" fill="#009f59"/><path d="m423.5 332.9c-7 0-13.9 1.1-20.6 3.1l-4.6 1.3-2.5-4.4c-10.2-17.7-29.8-28.8-51.3-28.8-27.8 0-51.8 18.4-57 43.8l-1.7 8.3-7-3.2c-8.7-4-18.2-6.1-27.8-6.1-37.1 0-67.3 30.7-67.3 68.4v3.7c0 35.8 26.2 64.7 58.6 64.7h181.5c40.3 0 73.1-33.9 73.1-75.4-.3-41.5-33.1-75.4-73.4-75.4z" fill="#009f59"/></svg>