<svg enable-background="new 0 0 500 425.6" viewBox="0 0 500 425.6" xmlns="http://www.w3.org/2000/svg"><g fill="#009f59"><path d="m500 155c0-63.4-54.7-114.9-122.1-114.9-11.9 0-23.3 1.6-34.2 4.6-16.8-26.6-49.5-44.7-87.1-44.7-48.1 0-88.1 29.5-97.1 68.6-14.2-5.9-29.8-9.3-46.4-9.3-62.5.1-113.1 47.2-113.1 105.3 0 1.2.1 2.4.1 3.7 0 .7-.1 1.3-.1 2 0 54.8 44.8 99.7 99.6 99.7h278.3.1c67.4-.2 122-51.6 122-115"/><path d="m128.4 299.4c-3.7-6.4-13-6.4-16.7 0l-32.5 56.3h.1c-4.1 7.2-6.3 15.6-6 24.6.8 24.2 20.2 44.1 44.4 45.3 27 1.4 49.4-20.1 49.4-46.8 0-9.9-3.1-19.2-8.4-26.8z"/><path d="m371.6 299.4c3.7-6.4 13-6.4 16.7 0l32.5 56.3h-.1c4.1 7.2 6.3 15.6 6 24.6-.8 24.2-20.2 44.1-44.4 45.3-27 1.4-49.4-20.1-49.4-46.8 0-9.9 3.1-19.2 8.4-26.8z"/><path d="m258.2 299.4c-3.7-6.4-13-6.4-16.7 0l-32.5 56.2h.1c-4.1 7.2-6.3 15.6-6 24.6.8 24.2 20.2 44.1 44.4 45.3 27 1.4 49.4-20.1 49.4-46.8 0-9.9-3.1-19.2-8.4-26.8z"/></g></svg>