<svg viewBox="0 0 500 500" xmlns="http://www.w3.org/2000/svg" xmlns:xlink="http://www.w3.org/1999/xlink"><clipPath id="a"><path d="m0 0h500v500h-500z"/></clipPath><g fill="#009f59"><path d="m408 199a104.07 104.07 0 0 0 -206.88-16.25 12.83 12.83 0 0 0 1.13 1.25 132.91 132.91 0 0 1 28.12-3c65.63 0 119.75 46.75 127.5 106.75a103.83 103.83 0 0 0 50.13-88.75z"/><path d="m300.34 72a9.71 9.71 0 0 0 9.66-9.61v-52.25a9.63 9.63 0 1 0 -19.25 0v52.25a9.7 9.7 0 0 0 9.59 9.61z"/><path d="m405.09 107.89 37-37a9.63 9.63 0 0 0 -13.62-13.63l-37 37a9.63 9.63 0 1 0 13.62 13.63z"/><path d="m199.09 107.89a9.64 9.64 0 0 0 13.63-13.63l-37-37a9.64 9.64 0 0 0 -13.63 13.63z"/><path d="m406.84 286.14a9.63 9.63 0 1 0 -13.62 13.62l37 37a9.63 9.63 0 0 0 13.62-13.62z"/></g><g clip-path="url(#a)"><path d="m493.09 189.39h-52.25a9.63 9.63 0 0 0 0 19.25h52.25a9.63 9.63 0 1 0 0-19.25z" fill="#009f59"/></g><g clip-path="url(#a)"><path d="m310.31 154.92a101.77 101.77 0 0 0 -26.4 3.52l-6.91 1.87-3.85-6.05c-13-20.57-38.06-33.33-65.56-33.33-35.42 0-66.11 21.23-72.71 50.49l-2.53 11.22-10.67-4.4a91 91 0 0 0 -35.53-7c-47.54-.04-86.15 35.6-86.15 79.38l.11 2.86-.11 1.65a74.81 74.81 0 0 0 74.69 74.87h235.73c51.58 0 93.58-39.23 93.58-87.52s-42-87.56-93.72-87.56z" fill="#009f59" stroke="#fff" stroke-miterlimit="10" stroke-width="14"/></g><g fill="#009f59"><path d="m162.69 378.77-9.69-16.83a6.92 6.92 0 0 0 -12 0l-10.56 18.37a18.81 18.81 0 0 0 -2.44 10.23 19 19 0 0 0 38-.88 17.74 17.74 0 0 0 -3.3-10.89z"/><path d="m277.64 378.22-13.64-23.65a6.92 6.92 0 0 0 -12 0l-14.74 25.52a24.27 24.27 0 0 0 -3.07 12.91 23.78 23.78 0 0 0 47.52-1.21 21.44 21.44 0 0 0 -4.07-13.53z"/><path d="m205.92 407.59a6.92 6.92 0 0 0 -12 0l-23.32 40.26h.11a32.93 32.93 0 0 0 -4.29 17.6 33.61 33.61 0 0 0 67.21-1.1 32.75 32.75 0 0 0 -6-19.14l-21.67-37.62z"/></g></svg>