<svg enable-background="new -229 30.6 500 500" viewBox="-229 30.6 500 500" xmlns="http://www.w3.org/2000/svg"><path d="m-61.2 457c42.6 0 79.3-11.7 110.2-35.1 4.6-3.6 7.9-7.4 10-11.5s3.2-9 3.2-14.9c0-8.5-2.4-15.7-7.1-21.7s-10.5-9-17.3-9c-4.2 0-8 .6-11.2 1.7-3.3 1.1-7.3 3.2-12.2 6.1-14.3 8.5-26.8 14.6-37.6 18.3-10.7 3.7-22.1 5.6-34.1 5.6-62.8 0-94.1-38.7-94.1-116.1 0-38.4 7.9-67.2 23.7-86.6 15.8-19.3 39.3-29 70.5-29 12.7 0 24.6 1.9 35.6 5.6 11.1 3.7 23.1 9.8 36.1 18.3 4.2 2.9 8 5 11.5 6.1 3.4 1.1 7.4 1.7 12 1.7 6.8 0 12.6-3 17.3-9s7.1-13.2 7.1-21.7c0-5.9-1-10.7-2.9-14.6-2-3.9-5.4-7.8-10.2-11.7-31.1-23.5-67.9-35.2-110.5-35.2-33.8 0-63.4 7.2-88.8 21.5-25.3 14.3-44.9 34.7-58.5 61.2-13.7 26.5-20.5 57.6-20.5 93.4s6.8 67 20.5 93.7 33.2 47.2 58.5 61.5c25.4 14.2 55 21.4 88.8 21.4zm257.6-203.9c14 0 26.7-3.2 38-9.5 11.4-6.3 20.3-15.1 26.8-26.3s9.8-23.7 9.8-37.3c0-14-3.3-26.6-9.8-37.8s-15.5-20-26.8-26.3c-11.4-6.5-24.1-9.6-38-9.6-14 0-26.7 3.2-38 9.5-11.4 6.3-20.4 15.1-27.1 26.3s-10 23.8-10 37.8c0 13.7 3.3 26.1 10 37.3s15.7 20 27.1 26.3c11.3 6.4 24 9.6 38 9.6zm0-37.1c-9.8 0-18-3.4-24.6-10.2-6.7-6.8-10-15.4-10-25.9 0-10.7 3.3-19.5 10-26.3s14.9-10.2 24.6-10.2c9.8 0 18 3.4 24.6 10.2 6.7 6.8 10 15.6 10 26.3 0 10.4-3.3 19-10 25.9-6.7 6.8-14.9 10.2-24.6 10.2z" fill="#009f59"/></svg>