<?xml version="1.0" encoding="utf-8"?>
<!-- Generator: Adobe Illustrator 23.0.1, SVG Export Plug-In . SVG Version: 6.00 Build 0)  -->
<svg version="1.1" id="Calque_1" xmlns="http://www.w3.org/2000/svg" xmlns:xlink="http://www.w3.org/1999/xlink" x="0px" y="0px"
	 viewBox="0 0 500 500" style="enable-background:new 0 0 500 500;" xml:space="preserve">
<style type="text/css">
	.st0{fill:#009F59;}
	.st1{fill:#01D7DA;}
</style>
<path class="st0" d="M500,155c0-63.4-54.7-114.9-122.1-114.9c-11.6,0-23.1,1.5-34.2,4.6C326.9,18.1,294.2,0,256.6,0
	c-48.1,0-88.1,29.5-97.1,68.6c-14.7-6.1-30.5-9.3-46.4-9.3C50.6,59.4,0,106.5,0,164.6c0,1.2,0.1,2.4,0.1,3.7c0,0.7-0.1,1.3-0.1,2
	C0,225.1,44.8,270,99.6,270H378C445.4,269.8,500,218.4,500,155"/>
<circle class="st1" cx="71.4" cy="327.7" r="22.4"/>
<circle class="st1" cx="163.6" cy="372.5" r="22.4"/>
<circle class="st1" cx="413.4" cy="327.7" r="22.4"/>
<circle class="st1" cx="320.9" cy="372.5" r="22.4"/>
<circle class="st1" cx="244" cy="428.7" r="22.4"/>
<circle class="st1" cx="413.4" cy="428.7" r="22.4"/>
<circle class="st1" cx="71.4" cy="428.7" r="22.4"/>
</svg>
