<?xml version="1.0" encoding="utf-8"?>
<!-- Generator: Adobe Illustrator 23.0.1, SVG Export Plug-In . SVG Version: 6.00 Build 0)  -->
<svg version="1.1" id="Calque_1" xmlns="http://www.w3.org/2000/svg" xmlns:xlink="http://www.w3.org/1999/xlink" x="0px" y="0px"
	 viewBox="0 0 500.2 500" style="enable-background:new 0 0 500.2 500;" xml:space="preserve">
<style type="text/css">
	.st0{fill:#9EA3A0;}
	.st1{fill:#009F59;}
	.st2{fill:#009F59;stroke:#FFFFFF;stroke-width:14;stroke-miterlimit:10;}
</style>
<path class="st0" d="M500.2,276.1c-61.4,91.1-185,115.1-276.1,53.6S109,144.7,170.5,53.6c14.3-21.2,32.5-39.4,53.6-53.7
	C240.4,290.6,500.2,276.1,500.2,276.1z"/>
<path class="st1" d="M147.2,370.6l-9.9-17.2c-1.9-3.4-6.2-4.6-9.5-2.7c-1.1,0.6-2,1.6-2.7,2.7l-10.8,18.8
	c-5.3,9.4-1.9,21.2,7.4,26.5s21.2,1.9,26.5-7.4C151.9,384.8,151.5,376.7,147.2,370.6L147.2,370.6z"/>
<path class="st1" d="M250.6,370l-14-24.2c-1.9-3.4-6.2-4.6-9.5-2.7c-1.1,0.6-2,1.6-2.7,2.7L209.3,372h0.1c-2.3,4-3.4,8.6-3.1,13.2
	c0.8,13.4,12.3,23.7,25.7,22.9c12.9-0.7,22.9-11.4,23-24.2C254.9,378.9,253.4,374.1,250.6,370L250.6,370z"/>
<path class="st1" d="M187,400.1c-1.9-3.4-6.2-4.6-9.5-2.7c-1.1,0.6-2,1.6-2.7,2.7L151,441.4h0.1c-9.3,16.6-3.4,37.5,13.2,46.8
	c16.6,9.3,37.5,3.4,46.8-13.2c2.9-5.2,4.4-11,4.4-16.9c0-7-2.2-13.9-6.2-19.6L187,400.1z"/>
<path class="st2" d="M366.7,239.7c0-46.5-40.1-84.3-89.6-84.3c-8.5,0-16.9,1.1-25.1,3.4c-12.3-19.5-36.3-32.8-63.9-32.8
	c-35.3,0-64.6,21.6-71.2,50.3c-10.8-4.5-22.3-6.8-34-6.8C37.1,169.5,0,204.1,0,246.7c0,0.9,0,1.8,0.1,2.7c0,0.5-0.1,0.9-0.1,1.4
	c0.1,40.3,32.8,73,73.1,73.1h204.1C326.6,323.9,366.7,286.2,366.7,239.7"/>
</svg>
