<svg enable-background="new 0 0 500 500" viewBox="0 0 500 500" xmlns="http://www.w3.org/2000/svg" xmlns:xlink="http://www.w3.org/1999/xlink"><clipPath id="a"><path d="m0 0h500v500h-500z"/></clipPath><path d="m187.3-6.1h318v318h-318z" fill="none"/><g fill="#ffdc59"><path d="m402.2 237.7c-22.7 53.7-84.5 78.8-138.2 56.1s-78.8-84.5-56.1-138.2c22.6-53.6 84.4-78.7 138.1-56l.2.1c53.5 22.8 78.5 84.5 56 138z"/><path d="m299.6 74.2c5.2 0 9.5-4.3 9.5-9.5v-51.7c0-5.2-4.3-9.5-9.5-9.5s-9.5 4.3-9.5 9.5v51.7c0 5.2 4.3 9.5 9.5 9.5z"/><path d="m403.4 109.8 36.6-36.6c3.6-3.8 3.4-9.9-.4-13.5-3.7-3.5-9.4-3.5-13.1 0l-36.6 36.6c-3.6 3.8-3.4 9.9.4 13.5 3.7 3.5 9.4 3.5 13.1 0z"/><path d="m199.4 109.8c3.7 3.7 9.8 3.7 13.5 0s3.7-9.8 0-13.5l-36.6-36.6c-3.8-3.6-9.9-3.4-13.5.4-3.5 3.7-3.5 9.4 0 13.1z"/><path d="m405 286.3c-3.8-3.6-9.9-3.4-13.5.4-3.5 3.7-3.5 9.4 0 13.1l36.6 36.6c3.8 3.6 9.9 3.4 13.5-.4 3.5-3.7 3.5-9.4 0-13.1z"/><path d="m490.5 190.6h-51.8c-5.2 0-9.5 4.3-9.5 9.5s4.3 9.5 9.5 9.5h51.8c5.2 0 9.5-4.3 9.5-9.5s-4.3-9.5-9.5-9.5z"/></g><path d="m285.4 156.9c-8.2 0-16.4 1.1-24.3 3.3l-6.4 1.8-3.5-5.6c-11.9-18.9-35-30.6-60.3-30.6-32.6 0-60.7 19.6-66.9 46.5l-2.4 10.3-9.8-4.1c-10.4-4.3-21.5-6.5-32.7-6.5-43.6-.1-79.1 32.7-79.1 73v2.9c0 .4 0 .9-.1 1.3 0 38 30.7 68.8 68.7 68.8h216.8c47.5 0 86.1-36.2 86.1-80.5s-38.6-80.6-86.1-80.6z" fill="#009f59"/><g clip-path="url(#a)"><path d="m371.6 237.5c0 44.4-38.6 80.5-86.1 80.5h-216.8c-38 0-68.7-30.8-68.7-68.8 0-.4.1-.8.1-1.3v-2.9c0-40.3 35.5-73.1 79.2-73.1 11.2 0 22.3 2.2 32.7 6.5l9.8 4.1 2.4-10.3c6.2-26.9 34.3-46.5 66.9-46.5 25.3 0 48.4 11.7 60.3 30.6l3.5 5.6 6.4-1.8c7.9-2.2 16.1-3.3 24.3-3.3 47.3.1 86 36.3 86 80.7z" fill="#009f59" stroke="#fff" stroke-miterlimit="10" stroke-width="14"/></g><path d="m500 500h-500v-500h500" fill="none"/><path d="m252.8 348.4h-51.1c-1.4.1-2.5-1-2.6-2.4 0-.5.1-1 .4-1.4l6.5-9.8h-61.4l-27.6 53c-.6 1.2-.1 2.7 1.1 3.3.4.2.8.3 1.2.3h44.7c1.4 0 2.5 1.1 2.6 2.4 0 .3 0 .7-.2 1l-44.7 101.8c-1.1 2.6 2.4 4.7 4.3 2.5l128.7-146.7c.9-1 .8-2.5-.3-3.4-.4-.4-1-.6-1.6-.6z" fill="#009f59"/></svg>