<svg enable-background="new 0 0 500 397.9" viewBox="0 0 500 397.9" xmlns="http://www.w3.org/2000/svg"><path d="m500 155c0-63.4-54.7-114.9-122.1-114.9-11.9 0-23.3 1.6-34.2 4.6-16.8-26.6-49.5-44.7-87.1-44.7-48.1 0-88.1 29.5-97.1 68.6-14.2-5.9-29.8-9.3-46.4-9.3-62.5.1-113.1 47.2-113.1 105.3 0 1.2.1 2.4.1 3.7 0 .7-.1 1.3-.1 2 0 54.8 44.8 99.7 99.6 99.7h278.3.1c67.4-.2 122-51.6 122-115" fill="#009f59"/><g fill="#01d7da"><path d="m275.7 296.4-7.4 12.8-6.4-10.8c-.8-1.7-3.2-2.3-4.9-1.3-1.8 1-2.1 3.2-1.2 4.8l8.4 14.4-13.2 22.8-13.1-22.8 8.4-14.4c.3-.4.5-1 .5-1.7 0-1.2-.6-2.3-1.7-3.1-1.7-1-4-.4-4.9 1.3l-6.4 10.8-7.4-12.8c-1-1.7-3.1-2.2-4.9-1.3-1.7.9-2.3 3.2-1.3 4.9l7.4 12.8-12.8.2c-2 0-3.6 1.5-3.6 3.5s1.7 3.5 3.6 3.5l16.9-.1 13.2 22.7h-26.7l-8.2-14.3c-.9-1.7-3.1-2.4-4.9-1.4s-2.3 3.1-1.3 4.8l6.2 10.9h-14.6c-2 0-3.6 1.6-3.6 3.6s1.6 3.5 3.6 3.5h14.7l-6.1 11.3c-1 1.8-.4 3.8 1.3 4.7 1.8 1 3.9.4 4.9-1.3l8.3-14.7h26.4l-13.5 23.3-16.6-.1c-1.9-.2-3.6 1.5-3.6 3.5v.1c0 1.9 1.6 3.5 3.6 3.5l12.5.1-7.2 12.5c-1 1.7-.4 3.9 1.3 4.8 1.8 1 3.9.5 4.9-1.3l7.3-12.6 6.6 11c.8 1.7 3.2 2.3 4.9 1.2 1.1-.7 1.7-1.7 1.7-3 0-.7-.2-1.3-.5-1.9l-8.5-14.4 13.3-23.2 13.4 23.2-8.5 14.4c-1 1.7-.5 4 1.2 4.9 1.8 1 3.9.4 4.9-1.2l6.5-11 7.4 12.6c1 1.7 3.1 2.3 4.9 1.3 1.2-.7 1.8-1.7 1.8-3 0-.3-.2-1-.5-1.8l-7.2-12.5 12.5-.1c2 0 3.5-1.7 3.5-3.5v-.1c0-2-1.6-3.5-3.6-3.5l-16.5.1-13.3-23.2h26.3l8.3 14.7c1 1.8 3.1 2.4 4.9 1.3 1.2-.7 1.8-1.7 1.8-3 0-.6-.1-1.2-.4-1.7l-6.4-11.3h14.9c2 0 3.5-1.5 3.5-3.5s-1.5-3.6-3.5-3.6h-15l6.2-10.9c.3-.5.4-1.1.4-1.7 0-1.4-.6-2.5-1.8-3.1-1.7-1-3.9-.3-4.9 1.4l-8 14.3h-26.7l13.1-22.7 16.8.1c2 0 3.6-1.5 3.6-3.5s-1.5-3.5-3.5-3.5l-12.9-.2 7.5-12.8c.3-.5.4-1.2.4-1.9 0-1.3-.6-2.3-1.7-3-1.6-1.2-3.8-.5-4.8 1.2z"/><path d="m404.4 296.4-7.4 12.8-6.4-10.8c-.8-1.7-3.2-2.3-4.9-1.3s-2.1 3.2-1.2 4.8l8.4 14.4-13.3 22.8-13.1-22.8 8.4-14.4c.3-.4.5-1 .5-1.7 0-1.2-.6-2.3-1.7-3.1-1.7-1-4-.4-4.9 1.3l-6.4 10.8-7.4-12.8c-1-1.7-3.1-2.2-4.9-1.3-1.7.9-2.3 3.2-1.3 4.9l7.4 12.8-12.8.2c-2 0-3.6 1.5-3.6 3.5s1.7 3.5 3.6 3.5l16.9-.1 13.1 22.7h-26.7l-8.2-14.3c-.9-1.7-3.1-2.4-4.9-1.4s-2.3 3.1-1.3 4.8l6.2 10.9h-14.6c-2 0-3.6 1.6-3.6 3.6s1.6 3.5 3.6 3.5h14.7l-6.3 11.3c-1 1.8-.4 3.8 1.3 4.7 1.7 1 3.9.4 4.9-1.3l8.3-14.7h26.4l-13.1 23.3-16.6-.1c-1.9-.2-3.6 1.5-3.6 3.5v.1c0 1.9 1.6 3.5 3.6 3.5l12.5.1-7.2 12.5c-1 1.7-.4 3.9 1.3 4.8 1.8 1 3.9.5 4.9-1.3l7.3-12.6 6.6 11c.8 1.7 3.2 2.3 4.9 1.2 1.1-.7 1.7-1.7 1.7-3 0-.7-.2-1.3-.5-1.9l-8.5-14.4 13.3-23.2 13.4 23.2-8.5 14.4c-1 1.7-.5 4 1.2 4.9 1.8 1 3.9.4 4.9-1.2l6.5-11 7.4 12.6c1 1.7 3.1 2.3 4.9 1.3 1.2-.7 1.8-1.7 1.8-3 0-.3-.2-1-.5-1.8l-7.2-12.5 12.5-.1c2 0 3.5-1.7 3.5-3.5v-.1c0-2-1.7-3.5-3.6-3.5l-16.5.1-13.3-23.2h26.3l8.3 14.7c1 1.8 3.1 2.4 4.9 1.3 1.2-.7 1.8-1.7 1.8-3 0-.6-.1-1.2-.4-1.7l-6.4-11.3h14.9c2 0 3.5-1.5 3.5-3.5s-1.5-3.6-3.5-3.6h-14.7l6.2-10.9c.3-.5.4-1.1.4-1.7 0-1.4-.6-2.5-1.8-3.1-1.7-1-3.9-.3-4.9 1.4l-8 14.3h-26.7l13.1-22.7 16.8.1c2 0 3.6-1.5 3.6-3.5s-1.5-3.5-3.5-3.5l-12.9-.2 7.5-12.8c.3-.5.4-1.2.4-1.9 0-1.3-.6-2.3-1.7-3-2-1.2-4.2-.5-5.1 1.2z"/><path d="m144.8 296.4-7.4 12.8-6.4-10.8c-.8-1.7-3.2-2.3-4.9-1.3-1.8 1-2.1 3.2-1.2 4.8l8.4 14.4-13.3 22.8-13-22.8 8.4-14.4c.3-.4.5-1 .5-1.7 0-1.2-.6-2.3-1.7-3.1-1.7-1-4-.4-4.9 1.3l-6.4 10.8-7.4-12.8c-1-1.7-3.1-2.2-4.9-1.3-1.7.9-2.3 3.2-1.3 4.9l7.4 12.8-12.7.2c-2 0-3.6 1.5-3.6 3.5s1.7 3.5 3.6 3.5l16.9-.1 13.2 22.7h-26.7l-8.2-14.3c-.9-1.7-3.1-2.4-4.9-1.4s-2.3 3.1-1.3 4.8l6.2 10.9h-14.5c-2 0-3.6 1.6-3.6 3.6s1.6 3.5 3.6 3.5h14.7l-6.3 11.3c-1 1.8-.4 3.8 1.3 4.7 1.7 1 3.9.4 4.9-1.3l8.3-14.7h26.4l-13.4 23.3-16.6-.2c-1.9-.2-3.6 1.5-3.6 3.5v.1c0 1.9 1.6 3.5 3.6 3.5l12.5.1-7.2 12.5c-1 1.7-.4 3.9 1.3 4.8 1.8 1 3.9.5 4.9-1.3l7.3-12.6 6.6 11c.8 1.7 3.2 2.3 4.9 1.2 1.1-.7 1.7-1.7 1.7-3 0-.7-.2-1.3-.5-1.9l-8.5-14.4 13.3-23.2 13.4 23.2-8.5 14.4c-1 1.7-.5 4 1.2 4.9 1.8 1 3.9.4 4.9-1.2l6.5-11 7.4 12.6c1 1.7 3.1 2.3 4.9 1.3 1.2-.7 1.8-1.7 1.8-3 0-.3-.2-1-.5-1.8l-7.2-12.5 12.5-.1c2 0 3.5-1.7 3.5-3.5v-.1c0-2-1.7-3.5-3.6-3.5l-16.5.1-13.3-23.2h26.3l8.3 14.7c1 1.8 3.1 2.4 4.9 1.3 1.2-.7 1.8-1.7 1.8-3 0-.6-.1-1.2-.4-1.7l-6.4-11.3h14.9c2 0 3.5-1.5 3.5-3.5s-1.5-3.6-3.5-3.6h-14.7l6.2-10.9c.3-.5.4-1.1.4-1.7 0-1.4-.6-2.5-1.8-3.1-1.7-1-3.9-.3-4.9 1.4l-8 14.3h-26.7l13.1-22.7 16.8.1c2 0 3.6-1.5 3.6-3.5s-1.5-3.5-3.5-3.5l-12.9-.2 7.2-12.8c.3-.5.4-1.2.4-1.9 0-1.3-.6-2.3-1.7-3-1.7-1.1-3.9-.4-4.9 1.3z"/></g></svg>