<svg enable-background="new 0 0 500 500" viewBox="0 0 500 500" xmlns="http://www.w3.org/2000/svg" xmlns:xlink="http://www.w3.org/1999/xlink"><clipPath id="a"><path d="m0 0h500v500h-500z"/></clipPath><path clip-path="url(#a)" d="m132 49c-32.5 32.5-49 72-49 118 0 28 6 55 20 79l147 254 147-254c14-24 20-51 20-79 0-46-16.5-85.5-49-118s-72-49-118-49-85.5 16.5-118 49zm70 166c-13.5-13.5-19.5-29.5-19.5-48s6-34.5 19.5-48 29.5-19.5 48-19.5 34.5 6 48 19.5 19.5 29.5 19.5 48-6 34.5-19.5 48-29.5 19.5-48 19.5-34.5-6-48-19.5z" fill="#009f59"/></svg>