<svg enable-background="new 0 0 500.7 500.7" viewBox="0 0 500.7 500.7" xmlns="http://www.w3.org/2000/svg" xmlns:xlink="http://www.w3.org/1999/xlink"><clipPath id="a"><path d="m0 0h500v500h-500z"/></clipPath><clipPath id="b"><path d="m0 0h500v500h-500z"/></clipPath><g fill="#009f59"><path clip-path="url(#a)" d="m500.7 155c0-63.4-54.7-114.9-122.1-114.9-11.9 0-23.3 1.6-34.2 4.6-16.8-26.6-49.5-44.7-87.1-44.7-48.1 0-88.1 29.5-97.1 68.6-14.2-5.9-29.8-9.3-46.4-9.3-62.5.1-113.1 47.2-113.1 105.3 0 1.2.1 2.4.1 3.7 0 .7-.1 1.3-.1 2 0 54.8 44.8 99.7 99.6 99.7h278.3.1c67.4-.2 122-51.6 122-115"/><path d="m201.5 333.6-13.5-23.5c-3.7-6.4-13-6.4-16.7 0l-14.8 25.6h.1c-2.4 4.2-3.6 9.1-3.4 14.3.6 13.7 11.8 24.8 25.5 25.3 15.1.5 27.5-11.5 27.5-26.5 0-5.7-1.7-10.9-4.7-15.2z"/><path clip-path="url(#b)" d="m342.3 332.7-19.1-33c-3.7-6.4-13-6.4-16.7 0l-20.5 35.7h.1c-3 5.3-4.6 11.4-4.2 18 .8 17 14.7 30.8 31.7 31.5 19 .8 34.7-14.3 34.7-33.2 0-7.1-2.2-13.6-6-19z"/><path clip-path="url(#b)" d="m255.6 373.8c-3.7-6.4-13-6.4-16.7 0l-32.5 56.3h.1c-4.1 7.2-6.3 15.6-6 24.6.8 24.2 20.2 44.1 44.4 45.3 27 1.4 49.4-20.1 49.4-46.8 0-10-3.1-19.2-8.4-26.8z"/><path clip-path="url(#b)" d="m432.6 453c0-15.2 8.5-25.7 19.2-38.4 10.6-12.7 24.6-29 24.6-51.1s-14-37.2-24.6-51.1l-12.7-17.5h-44l20.2 30.2c10.4 14.5 19.2 23.2 19.2 38.4s-8.5 25.7-19.2 38.4c-10.6 12.7-24.6 29-24.6 51.1 0 19.8 11.7 34.9 21.2 47.7h47.4c-2.1-3.4-5.4-7-7.5-9.3-10.7-13-19.2-23.4-19.2-38.4"/><path clip-path="url(#b)" d="m68.2 453c0-15.2 8.5-25.7 19.2-38.4 10.6-12.7 24.6-29 24.6-51.1s-14-37.2-24.6-51.1l-12.7-17.5h-44l20.2 30.2c10.3 14.6 19.1 23.2 19.1 38.4s-8.5 25.7-19.2 38.4c-10.6 12.7-24.6 29-24.6 51.1 0 19.8 11.7 34.9 21.2 47.7h47.4c-2.1-3.4-5.4-7-7.5-9.3-10.6-13-19.1-23.4-19.1-38.4"/></g></svg>