<svg enable-background="new 0 0 500.2 500" viewBox="0 0 500.2 500" xmlns="http://www.w3.org/2000/svg"><path d="m500.2 279.7c-61.4 91.1-185 115.1-276.1 53.6s-115.1-185-53.6-276.1c14.3-21.2 32.5-39.4 53.6-53.7 16.3 290.7 276.1 276.2 276.1 276.2z" fill="#9ea3a0"/><g fill="#009f59"><path d="m341.2 269.4c-7 0-14 .9-20.8 2.8l-4.7 1.3-2.6-4.1c-10.1-16.3-30.1-26.4-51.9-26.4-28.1 0-52.2 16.9-57.6 40.2l-1.8 7.5-7.1-2.9c-8.9-3.7-18.4-5.6-28-5.6-37.4 0-68 28.2-68 62.9v3.5c0 2.4.2 4.8.5 7.1.5.1 1 .1 1.5.2 13.1-17.7 35.8-28.6 60.2-28.6 31.2 0 58.6 17.8 68.1 43.2 8.5-2.7 17.4-4.1 26.3-4.1h1.6c8.9 0 17.8 1.4 26.3 4.1 9.5-25.4 36.9-43.2 68.1-43.2 24.5 0 47 10.9 60.2 28.6.3-.1.7-.1 1-.1 1.6-5.5 2.3-11.3 2.4-17 .3-38.5-33-69.5-73.7-69.4z" stroke="#fff" stroke-miterlimit="10" stroke-width="14"/><path d="m154.9 331.3c-21.8 0-41.7 10.1-51.8 26.5l-2.6 4.1-4.7-1.3c-6.8-1.9-13.8-2.8-20.8-2.8-40.7-.1-73.8 30.9-73.8 69.1s33.1 69 73.8 69.2h125.8c-19.3-13.5-30.9-35.5-30.9-59.1v-3.7c0-28.3 16.7-53 41.3-66-7-21.2-30-36-56.3-36z"/><path d="m425.3 357.6c-7 0-14.1.9-20.8 2.8l-4.7 1.3-2.6-4.1c-10.2-16.3-30.1-26.5-51.9-26.5-28.1 0-52.2 16.9-57.6 40.1l-1.7 7.5-7.1-2.9c-8.9-3.7-18.4-5.6-28-5.6-37.4 0-68 28.2-68 62.9v3.5c-.1 32.7 26.4 59.3 59.1 59.3h.1 183.3c40.7 0 73.9-31 73.9-69.2s-33.3-69.1-74-69.1z" stroke="#fff" stroke-miterlimit="10" stroke-width="12"/></g></svg>