<?xml version="1.0" encoding="utf-8"?>
<!-- Generator: Adobe Illustrator 23.0.1, SVG Export Plug-In . SVG Version: 6.00 Build 0)  -->
<svg version="1.1" id="Calque_1" xmlns="http://www.w3.org/2000/svg" xmlns:xlink="http://www.w3.org/1999/xlink" x="0px" y="0px"
	 viewBox="0 0 500.2 500" style="enable-background:new 0 0 500.2 500;" xml:space="preserve">
<style type="text/css">
	.st0{fill:#9EA3A0;}
	.st1{fill:#009F59;}
	.st2{clip-path:url(#SVGID_2_);}
	.st3{fill:#009F59;stroke:#FFFFFF;stroke-width:14;stroke-miterlimit:10;}
</style>
<path class="st0" d="M495.8,276.1c-61.4,91.1-185,115.1-276.1,53.6s-115.1-185-53.6-276.1c14.3-21.2,32.5-39.4,53.6-53.7
	C236,290.6,495.8,276.1,495.8,276.1z"/>
<path class="st1" d="M249.9,346.6h-50.5c-1.3,0.1-2.4-0.9-2.5-2.3c0-0.5,0.1-1,0.4-1.4l6.4-9.7H143l-27.3,52.3
	c-0.6,1.2-0.1,2.7,1.2,3.3c0.4,0.2,0.7,0.2,1.1,0.2h44.2c1.3-0.1,2.5,1,2.5,2.3c0,0.4-0.1,0.8-0.2,1.1L120.4,493
	c-1.1,2.6,2.4,4.7,4.3,2.5l127.2-144.9c0.9-1,0.7-2.6-0.3-3.4C251.1,346.8,250.5,346.6,249.9,346.6L249.9,346.6z"/>
<path class="st1" d="M79,398.9l-16.2-28.1c-3.2-5.5-10.3-7.4-15.8-4.2c-1.8,1-3.2,2.5-4.2,4.2l-17.7,30.7h0.1
	c-8.6,15.3-3.2,34.7,12.1,43.3s34.7,3.2,43.3-12.1C86.6,422,86,408.9,79,398.9z"/>
<g>
	<defs>
		<rect id="SVGID_1_" y="0" width="500" height="500"/>
	</defs>
	<clipPath id="SVGID_2_">
		<use xlink:href="#SVGID_1_"  style="overflow:visible;"/>
	</clipPath>
	<g class="st2">
		<path class="st1" d="M340.8,398.9l-16.2-28.1c-3.2-5.5-10.3-7.4-15.8-4.2c-1.8,1-3.2,2.5-4.2,4.2l-17.7,30.7h0.1
			c-8.6,15.3-3.2,34.7,12.1,43.3c15.3,8.6,34.7,3.2,43.3-12.1C348.4,422,347.8,408.9,340.8,398.9L340.8,398.9z"/>
	</g>
</g>
<path class="st3" d="M367.3,237.1c0,43.8-38.2,79.5-85.1,79.6H68c-37.5,0-67.8-30.4-67.8-67.9c0,0,0-0.1,0-0.1
	c0-0.4,0.1-0.8,0.1-1.2v-2.9c0-39.8,35.1-72.2,78.2-72.2c11.1,0,22.1,2.2,32.3,6.4l9.7,4l2.3-10.2c6.1-26.6,33.9-45.9,66.1-45.9
	c25,0,47.8,11.6,59.6,30.3l3.5,5.5l6.3-1.7c7.8-2.1,15.9-3.2,24-3.2C329.1,157.5,367.3,193.2,367.3,237.1L367.3,237.1z"/>
</svg>
