<svg enable-background="new 0 0 500.2 500" viewBox="0 0 500.2 500" xmlns="http://www.w3.org/2000/svg"><path d="m498.9 312.8c-68.2 101.2-205.6 127.8-306.8 59.6s-127.8-205.6-59.6-306.8c15.9-23.5 36.1-43.7 59.6-59.6 18.1 322.9 306.8 306.8 306.8 306.8z" fill="#9ea3a0"/><path d="m330.5 307.7c-9.5 0-19 1.3-28.1 3.8l-7.4 2.1-4-6.5c-13.8-21.9-40.5-35.4-69.8-35.4-37.7 0-70.3 22.7-77.4 53.8l-2.8 11.9-11.3-4.7c-12-5-24.9-7.6-37.8-7.5-50.7-.1-91.8 37.8-91.8 84.5v3.4c0 .5 0 1-.1 1.6 0 43.9 35.6 79.6 79.5 79.7h250.9c55 0 99.7-41.9 99.7-93.2s-44.7-93.3-99.7-93.3v-.2z" fill="#009f59" stroke="#fff" stroke-miterlimit="10" stroke-width="14"/></svg>