<svg enable-background="new 0 0 500 500" viewBox="0 0 500 500" xmlns="http://www.w3.org/2000/svg"><g fill="#009f59"><path d="m256.1 59.7h-11.2v42.2h11.2z"/><path d="m244.9 437.9h11.2v-42.2h-11.2z"/><path d="m61.4 256.6h42.1v-11.2h-42.1z"/><path d="m397.4 256.6h42.1v-11.2h-42.1z"/><path d="m253.4 269.3c-7.2 0-13.1-5.8-13.1-13s5.8-13.1 13.1-13.1c7.2 0 13.1 5.8 13.1 13.1 0 7.2-5.9 13-13.1 13m-.5-66.5c-2.8 0-5.5.2-8.2.7l-69.2-79.5-10.7 5.3 48.8 91.6c-7.7 9-12.4 20.7-12.4 33.5 0 28.5 23.1 51.6 51.6 51.6s51.6-23.1 51.6-51.6c.1-28.5-23-51.6-51.5-51.6"/><path d="m250 500c-137.9 0-250-112.2-250-250s112.1-250 250-250c137.8 0 250 112.1 250 250s-112.1 250-250 250zm0-462.6c-117.3 0-212.7 95.3-212.7 212.6s95.4 212.6 212.7 212.6 212.6-95.4 212.6-212.6c.1-117.3-95.3-212.6-212.6-212.6z"/></g></svg>