<svg enable-background="new 0 0 500.2 500" viewBox="0 0 500.2 500" xmlns="http://www.w3.org/2000/svg" xmlns:xlink="http://www.w3.org/1999/xlink"><clipPath id="a"><path d="m0 0h500v500h-500z"/></clipPath><path d="m488.8 245.4c-54.6 80.9-164.5 102.3-245.4 47.7s-102.3-164.5-47.7-245.4c12.7-18.8 28.9-35 47.7-47.7 14.4 258.4 245.4 245.4 245.4 245.4z" fill="#9ea3a0"/><path d="m138 356.5-3.3 5.8-2.9-4.9c-.4-.8-1.4-1-2.2-.6-.7.4-1 1.3-.6 2.1l.1.1 3.8 6.5-6 10.3-5.9-10.3 3.8-6.5c.4-.8.2-1.7-.6-2.2-.8-.4-1.8-.2-2.2.6l-2.9 4.9-3.3-5.8c-.5-.7-1.4-1-2.2-.6s-1 1.4-.6 2.2l3.4 5.8-5.8.1c-.9 0-1.6.7-1.6 1.6s.7 1.6 1.6 1.6l7.6-.1 5.9 10.2h-12l-3.7-6.4c-.4-.8-1.3-1.1-2.1-.7-.1 0-.1.1-.1.1-.8.4-1 1.4-.6 2.2l2.8 4.9h-6.6c-.9 0-1.6.7-1.6 1.6s.7 1.6 1.6 1.6h6.6l-2.8 5.1c-.4.7-.2 1.6.5 2 0 0 .1 0 .1.1.7.5 1.7.3 2.1-.5l.1-.1 3.7-6.6h11.9l-6 10.5-7.5-.1c-.9 0-1.6.7-1.6 1.6v.1c0 .9.7 1.6 1.6 1.6l5.6.1-3.2 5.6c-.5.7-.3 1.7.5 2.1l.1.1c.8.4 1.8.2 2.2-.6l3.3-5.7 3 5c.4.7 1.3 1 2 .6.1 0 .1-.1.2-.1.5-.3.8-.8.8-1.4 0-.3-.1-.6-.2-.8l-3.8-6.5 6-10.4 6 10.4-3.8 6.5c-.5.7-.3 1.7.5 2.2.8.4 1.7.2 2.2-.5l2.9-5 3.3 5.7c.4.8 1.4 1 2.2.6.5-.3.8-.8.8-1.4 0-.1-.1-.4-.2-.8l-3.2-5.6 5.6-.1c.9 0 1.6-.7 1.6-1.6v-.1c0-.9-.7-1.6-1.6-1.6l-7.4.1-6-10.5h11.8l3.7 6.6c.4.8 1.3 1.1 2.1.7.1 0 .1-.1.1-.1.5-.3.8-.8.8-1.4 0-.3-.1-.6-.2-.8l-2.9-5.1h6.7c.9 0 1.6-.7 1.6-1.6s-.7-1.6-1.6-1.6h-6.6l2.8-4.9c.1-.2.2-.5.2-.8 0-.6-.3-1.1-.8-1.4-.8-.4-1.8-.2-2.2.6l-3.6 6.4h-12l5.9-10.2 7.6.1c.9 0 1.6-.7 1.6-1.6s-.7-1.6-1.6-1.6l-5.8-.1 3.4-5.8c.1-.2.2-.5.2-.8 0-.6-.3-1.1-.8-1.4-.8-.3-1.8 0-2.3.7z" fill="#01d7da"/><path d="m197.2 420.1-5.4 9.4-4.7-7.9c-.8-1.2-2.4-1.6-3.6-.8-1.2.7-1.6 2.2-.9 3.4l6.2 10.5-9.7 16.7-9.6-16.7 6.2-10.5c.2-.4.4-.8.4-1.2 0-.9-.4-1.8-1.2-2.3-1.2-.7-2.8-.3-3.6.9l-4.7 7.9-5.4-9.4c-.8-1.2-2.4-1.6-3.6-.9s-1.7 2.3-.9 3.5v.1l5.5 9.4-9.4.1c-1.4 0-2.6 1-2.6 2.4v.2c0 1.4 1.2 2.6 2.6 2.6l12.4-.1 9.6 16.7h-19.6l-6-10.5c-.7-1.3-2.3-1.7-3.6-1-1.2.6-1.7 2-1.1 3.2 0 .1.1.2.2.3l4.5 8h-10.7c-1.4 0-2.6 1.2-2.6 2.6s1.2 2.6 2.6 2.6h10.8l-4.6 8.3c-.7 1.2-.3 2.8.9 3.5 1.3.7 2.9.3 3.6-1l6.1-10.8h19.4l-9.8 17-12.1-.1c-1.4-.1-2.5 1-2.6 2.4v.1.1c0 1.4 1.2 2.6 2.6 2.6l9.1.1-5.3 9.2c-.7 1.2-.3 2.8.9 3.5s2.8.3 3.6-.9l5.4-9.3 4.8 8.1c.6 1.2 2.1 1.7 3.4 1 .1 0 .2-.1.2-.1.8-.4 1.2-1.3 1.2-2.2 0-.5-.1-1-.4-1.4l-6.3-10.6 9.7-17 9.8 17-6.3 10.6c-.8 1.2-.4 2.8.8 3.6h.1c1.2.7 2.8.3 3.6-.9l4.8-8.1 5.4 9.3c.7 1.2 2.2 1.7 3.4 1 .1 0 .1-.1.2-.1.8-.4 1.3-1.3 1.3-2.2 0-.5-.2-.9-.4-1.3l-5.3-9.2 9.1-.1c1.4 0 2.6-1.1 2.6-2.6v-.1c0-1.4-1.1-2.5-2.4-2.5-.1 0-.2 0-.3 0l-12.1.1-9.7-17h19.3l6 10.7c.7 1.3 2.3 1.7 3.6 1 .8-.4 1.3-1.3 1.3-2.2 0-.5-.1-.9-.3-1.3l-4.7-8.3h11c1.4 0 2.6-1.2 2.6-2.6s-1.2-2.6-2.6-2.6h-10.8l4.5-8c.2-.4.3-.8.3-1.2.1-1-.5-1.9-1.3-2.3-1.3-.7-2.9-.3-3.6 1l-5.9 10.5h-19.6l9.6-16.7 12.3.1c1.4 0 2.6-1.1 2.7-2.5v-.1c0-1.4-1-2.6-2.4-2.6-.1 0-.1 0-.2 0l-9.5-.1 5.5-9.4c.2-.4.3-.9.3-1.4 0-.9-.4-1.8-1.2-2.2-1.2-.7-2.7-.2-3.4 1z" fill="#01d7da"/><path d="m0 0h500v500h-500z" fill="none"/><path d="m215.1 406.3 4.5-7.8 3.9 6.6c.5 1 1.8 1.4 2.9.9 0 0 .1 0 .1-.1 1-.5 1.3-1.7.8-2.7 0-.1-.1-.1-.1-.2l-5.2-8.8 8.1-14 8.1 14-5.1 8.8c-.2.3-.3.6-.3 1 0 .7.4 1.4 1 1.9 1 .6 2.3.3 2.9-.7l.1-.1 3.9-6.6 4.5 7.8c.7 1 2 1.3 3.1.6.9-.6 1.2-1.8.7-2.8l-4.6-7.9 7.9-.1c1.2 0 2.2-.9 2.2-2.1v-.1c0-1.2-1-2.2-2.2-2.2l-10.4.1-8.1-13.9h16.3l5 8.8c.6 1.1 1.9 1.4 3 .9 1-.5 1.4-1.8.9-2.8 0 0 0-.1-.1-.1l-3.8-6.7h8.9c1.2 0 2.2-1 2.2-2.2s-1-2.2-2.2-2.2h-9l3.9-6.9c.6-.9.4-2.2-.6-2.8-.1 0-.1-.1-.2-.1-1.1-.6-2.4-.2-3 .8l-5.1 9h-16l8.2-14.2 10.1.1c1.2 0 2.2-.9 2.2-2.1v-.1c-.1-1.2-1-2.1-2.2-2.2l-7.6-.1 4.4-7.7c.6-.9.4-2.2-.6-2.8-.1 0-.1-.1-.2-.1-1-.6-2.3-.3-3 .7v.1l-4.5 7.7-4-6.8c-.5-1-1.7-1.4-2.7-.9-.1.1-.2.1-.3.2-.7.4-1 1.1-1 1.8 0 .4.1.8.3 1.1l5.2 8.8-8.1 14.2-8.2-14.2 5.2-8.8c.7-1 .4-2.4-.6-3s-2.4-.4-3 .6l-.1.1-4 6.8-4.5-7.7c-.6-1-1.9-1.4-2.9-.8h-.1c-.7.3-1.1 1-1.1 1.8 0 .4.1.8.3 1.1l4.4 7.7-7.6.1c-1.2 0-2.2 1-2.2 2.2v.1c0 1.2 1 2.1 2.2 2.1l10.1-.1 8.1 14.2h-16.1l-5.1-9c-.6-1-1.9-1.4-2.9-.8h-.1c-.7.3-1.1 1-1.1 1.8 0 .4.1.7.2 1.1l3.9 6.9h-9.2c-1.2 0-2.2 1-2.2 2.2s1 2.2 2.2 2.2h9l-3.8 6.7c-.2.3-.2.7-.2 1 0 .8.4 1.5 1.1 1.9 1.1.6 2.4.2 3-.8 0 0 0 0 0-.1l4.9-8.8h16.3l-8.1 13.9-10.3-.1c-1.2 0-2.2.9-2.2 2.1v.1c0 1.2 1 2.2 2.2 2.2l7.9.1-4.6 7.9c-.2.3-.2.7-.2 1.1 0 .7.3 1.4 1 1.8.9.8 2.3.7 3-.2.1-.1.2-.3.3-.4z" fill="#01d7da"/><g clip-path="url(#a)"><path d="m366.7 247.6c0-46.5-40.1-84.3-89.6-84.3-8.5 0-16.9 1.1-25.1 3.4-12.3-19.5-36.3-32.8-63.9-32.8-35.3 0-64.6 21.6-71.2 50.3-10.8-4.5-22.3-6.8-34-6.8-45.8 0-82.9 34.6-82.9 77.2 0 .9 0 1.8.1 2.7 0 .5-.1 1-.1 1.4.1 40.3 32.8 73 73.1 73.1h204.1c49.4 0 89.5-37.7 89.5-84.2" fill="#009f59" stroke="#fff" stroke-miterlimit="10" stroke-width="14"/></g></svg>