<svg enable-background="new 0 0 500.2 500" viewBox="0 0 500.2 500" xmlns="http://www.w3.org/2000/svg"><path d="m500.2 276.1c-61.4 91.1-185 115.1-276.1 53.6s-115.1-185-53.6-276.1c14.3-21.2 32.5-39.4 53.6-53.7 16.3 290.7 276.1 276.2 276.1 276.2z" fill="#9ea3a0"/><path d="m502.2 377.3c0-60.2-52.4-109.1-116.9-109.1-11.1 0-22.2 1.5-32.9 4.4l-9.1 2.5-5-8c-16.1-25.6-47.4-41.5-81.7-41.5-44.1 0-82.3 26.5-90.7 63l-3.3 14.8-13.9-5.9c-14-5.9-29.1-8.9-44.2-8.8-59.3 0-107.3 44.4-107.3 99v4c0 .5 0 1.1-.1 1.6 0 51.5 41.8 93.3 93 93.3h295.4c64.4-.2 116.7-49.1 116.7-109.3z" fill="#009f59" stroke="#fff" stroke-miterlimit="10" stroke-width="14"/></svg>