<?xml version="1.0" encoding="utf-8"?>
<!-- Generator: Adobe Illustrator 23.0.1, SVG Export Plug-In . SVG Version: 6.00 Build 0)  -->
<svg version="1.1" id="Calque_1" xmlns="http://www.w3.org/2000/svg" xmlns:xlink="http://www.w3.org/1999/xlink" x="0px" y="0px"
	 viewBox="0 0 500 500" style="enable-background:new 0 0 500 500;" xml:space="preserve">
<style type="text/css">
	.st0{fill:none;}
	.st1{fill:#009F59;}
	.st2{clip-path:url(#SVGID_2_);}
	.st3{fill:#01D7DA;}
</style>
<rect y="0" class="st0" width="500" height="500"/>
<g>
	<path class="st1" d="M362.9,258.9c42,1.3,73.6,21.9,92.6,60c17.1,34.4,17.2,68.9-5.7,100.9c-22,30.9-53.3,41.2-89.9,34.9
		c-28.2-4.8-51.4-30.4-57-60.5c-6.8-36.5,19.8-72.8,54.9-74.8c10.5-0.6,21.1-0.5,22.9,13.2c1.5,11.5-5.6,17.4-16,18.9
		c-20.3,2.9-30.7,14.4-29.3,34.5c1.5,21.5,18.7,36.6,40.4,37.5c43.6,1.9,71.1-42.4,52.5-85.2c-13.9-32-39.6-46.1-73.7-46.1
		c-75.9-0.1-321.2-0.2-326.7,0c-13.7,0.1-27.2,0.3-27-17c0.1-16,14.7-16.3,26.7-16.2L362.9,258.9z"/>
</g>
<g>
	<defs>
		<rect id="SVGID_1_" y="0" width="500" height="500"/>
	</defs>
	<clipPath id="SVGID_2_">
		<use xlink:href="#SVGID_1_"  style="overflow:visible;"/>
	</clipPath>
	<g class="st2">
		<path class="st1" d="M394,240.5c42-1.3,74-21.3,92.9-59.4c17.1-34.4,17.2-68.9-5.7-100.9c-22-30.9-53.3-41.2-89.9-34.9
			c-28.2,4.8-51.4,30.4-57,60.5c-6.8,36.5,19.8,72.8,54.9,74.8c10.5,0.6,21.1,0.5,22.9-13.2c1.5-11.5-5.6-17.4-16-18.9
			c-20.3-2.9-30.7-14.4-29.3-34.5c1.5-21.5,18.7-36.6,40.4-37.5c43.6-1.9,71.1,42.4,52.5,85.2c-13.9,32-39.6,46.1-73.7,46.1h-83.8
			c-12.6,0-27.2-0.3-27,17c0.1,16,14.5,15.6,25.9,15.6C333.5,240.4,394,240.5,394,240.5"/>
	</g>
</g>
<path class="st1" d="M206.2,348.3h-92.5c-7.9,0-14.3-7.5-14.3-16.7s6.4-16.7,14.3-16.7h92.5c7.9,0,14.3,7.5,14.3,16.7
	S214.1,348.3,206.2,348.3"/>
<path class="st3" d="M193.1,75.1l-10,17.3l-8.7-14.6c-1.3-2.3-4.1-3.1-6.4-1.8c-0.1,0-0.1,0.1-0.2,0.1c-2.2,1.3-3,4.2-1.7,6.4
	c0,0,0.1,0.1,0.1,0.1l11.4,19.5l-18,31l-17.8-31l11.4-19.5c0.5-0.7,0.7-1.5,0.7-2.3c-0.1-1.7-0.9-3.3-2.3-4.3
	c-2.4-1.3-5.5-0.6-6.6,1.7l-8.7,14.7l-10-17.3c-1.4-2.3-4.3-3.1-6.6-1.7c-2.3,1.3-3.1,4.2-1.8,6.5c0,0,0.1,0.1,0.1,0.1l10.1,17.4
	l-17.4,0.3c-2.7,0-4.9,2.1-4.9,4.7c0,0,0,0,0,0.1c0,2.7,2.2,4.8,4.9,4.8l23-0.2l17.8,30.8h-36.2l-11.1-19.5
	c-1.3-2.3-4.2-3.2-6.5-1.9c0,0,0,0-0.1,0c-2.2,1.2-3,4-1.8,6.2c0,0.1,0.1,0.2,0.1,0.3l8.4,14.8H84.5c-2.7,0-4.9,2.2-4.9,4.9
	c0,2.7,2.2,4.8,4.8,4.8c0,0,0,0,0.1,0h19.9L96,162.8c-1.3,2.2-0.6,5,1.5,6.3c0.1,0,0.1,0.1,0.2,0.1c2.3,1.3,5.2,0.6,6.5-1.7
	c0,0,0-0.1,0.1-0.1l11.2-19.9h35.9L133.1,179l-22.4-0.2c-2.6-0.1-4.8,1.9-4.9,4.4c0,0.1,0,0.2,0,0.3v0.2c0.1,2.6,2.3,4.7,4.9,4.8
	l16.9,0.2l-9.7,17c-1.4,2.1-0.7,5,1.4,6.3c0.1,0.1,0.2,0.1,0.3,0.2c2.3,1.4,5.2,0.6,6.6-1.7l9.9-17.1l9,15c1.2,2.2,4,3,6.3,1.8
	c0.1-0.1,0.2-0.1,0.3-0.2c1.5-0.8,2.4-2.4,2.3-4.1c0-0.9-0.2-1.8-0.7-2.5l-11.6-19.6l18-31.4l18.2,31.4l-11.6,19.6
	c-1.4,2.2-0.7,5.1,1.5,6.5c0.1,0,0.1,0.1,0.2,0.1c2.3,1.3,5.2,0.6,6.6-1.6l8.9-15l10,17.1c1.3,2.3,4.1,3.1,6.4,1.8
	c0.1,0,0.1-0.1,0.2-0.1c1.5-0.8,2.4-2.4,2.4-4.1c-0.1-0.8-0.4-1.6-0.7-2.4l-9.7-17l16.9-0.2c2.6,0,4.8-2.2,4.8-4.8v-0.2
	c0-2.6-2.2-4.7-4.8-4.7c0,0-0.1,0-0.1,0l-22.4,0.2l-18-31.5h35.6l11.2,19.9c1.2,2.3,4.1,3.2,6.3,1.9c0.1,0,0.2-0.1,0.3-0.1
	c1.6-0.8,2.5-2.4,2.5-4.1c0-0.8-0.2-1.6-0.5-2.3l-8.7-15.3h20.3c2.6,0,4.8-2.1,4.8-4.7c0,0,0-0.1,0-0.1c0-2.7-2.1-4.9-4.7-4.9
	c0,0,0,0-0.1,0h-19.9l8.3-14.8c0.4-0.7,0.5-1.5,0.5-2.3c0.1-1.8-0.9-3.5-2.5-4.3c-2.3-1.3-5.3-0.5-6.6,1.8c0,0,0,0,0,0.1l-10.9,19.4
	h-36.3l17.8-30.8l22.8,0.2c2.7,0,4.8-2.1,4.9-4.8c0-2.7-2.1-4.8-4.8-4.8l-17.4-0.1L201.6,80c0.4-0.8,0.5-1.6,0.5-2.5
	c0.1-1.7-0.8-3.3-2.3-4.1C197.5,72.1,194.5,72.8,193.1,75.1L193.1,75.1z"/>
</svg>
