<?xml version="1.0" encoding="utf-8"?>
<!-- Generator: Adobe Illustrator 23.0.1, SVG Export Plug-In . SVG Version: 6.00 Build 0)  -->
<svg version="1.1" id="Calque_1" xmlns="http://www.w3.org/2000/svg" xmlns:xlink="http://www.w3.org/1999/xlink" x="0px" y="0px"
	 viewBox="0 0 500.3 500" style="enable-background:new 0 0 500.3 500;" xml:space="preserve">
<style type="text/css">
	.st0{fill:#01D7DA;}
	.st1{fill:none;}
</style>
<path class="st0" d="M113.8,60.7l-10,17.3l-8.7-14.6c-1.1-2.3-4.3-3.1-6.6-1.7c-2.4,1.4-2.9,4.3-1.6,6.5l11.4,19.5l-18,31l-17.8-31
	l11.4-19.5c0.4-0.6,0.7-1.4,0.7-2.3c0-1.6-0.8-3.1-2.3-4.3c-2.4-1.3-5.5-0.6-6.6,1.7L57,78L47,60.7c-1.3-2.3-4.2-3-6.6-1.7
	c-2.3,1.2-3.1,4.3-1.7,6.6L48.8,83l-17.4,0.3c-2.7,0-4.9,2.1-4.9,4.8s2.3,4.8,4.9,4.8l23-0.2l17.8,30.8H36L24.9,104
	c-1.3-2.3-4.3-3.3-6.6-1.9c-2.4,1.4-3.1,4.1-1.7,6.5l8.4,14.8H5.2c-2.7,0-4.9,2.2-4.9,4.9c0,2.7,2.2,4.8,4.9,4.8h19.9l-8.5,15.3
	c-1.3,2.4-0.6,5.1,1.7,6.4c2.4,1.4,5.3,0.5,6.6-1.8l11.2-19.9H72l-18.2,31.5l-22.4-0.2c-2.5-0.3-4.9,2-4.9,4.7v0.2
	c0,2.5,2.2,4.8,4.9,4.8l16.9,0.2l-9.7,17c-1.4,2.4-0.6,5.3,1.7,6.5c2.4,1.3,5.3,0.6,6.6-1.7l9.9-17.1l9,15c1.1,2.3,4.3,3.1,6.6,1.6
	c1.5-0.9,2.3-2.3,2.3-4.1c0-1-0.2-1.7-0.7-2.5l-11.6-19.6l18-31.4l18.2,31.4L87,189c-1.4,2.3-0.7,5.4,1.6,6.6
	c2.4,1.3,5.3,0.6,6.6-1.6l8.9-15l10,17.1c1.4,2.4,4.3,3.1,6.6,1.7c1.6-1,2.4-2.3,2.4-4.1c0-0.4-0.3-1.3-0.7-2.4l-9.7-17l16.9-0.2
	c2.7,0,4.8-2.3,4.8-4.8v-0.2c0-2.7-2.2-4.7-4.9-4.7l-22.4,0.2l-18-31.5h35.6l11.2,19.9c1.3,2.4,4.2,3.2,6.6,1.8
	c1.7-1,2.5-2.3,2.5-4.1c0-0.9-0.2-1.7-0.5-2.3l-8.7-15.3h20.3c2.7,0,4.8-2.1,4.8-4.8s-2.1-4.9-4.8-4.9h-19.9l8.3-14.8
	c0.4-0.7,0.5-1.5,0.5-2.3c0-1.9-0.8-3.3-2.5-4.3c-2.3-1.3-5.3-0.5-6.6,1.9L125,123.3H88.7l17.8-30.8l22.8,0.2c2.7,0,4.9-2.1,4.9-4.8
	s-2.1-4.7-4.8-4.8L112,83l10.2-17.4c0.4-0.7,0.5-1.6,0.5-2.5c0-1.8-0.8-3.2-2.3-4.1C118.1,57.6,115.1,58.5,113.8,60.7L113.8,60.7z"
	/>
<rect y="0" class="st1" width="500" height="500"/>
<path class="st0" d="M292,252.2l-16.3,28.2l-14.2-23.8c-1.8-3.8-7-5-10.8-2.8c-3.9,2.2-4.7,7-2.6,10.6l18.6,31.7l-29.3,50.4
	l-29-50.4l18.5-31.7c0.7-1,1.1-2.3,1.1-3.7c0-2.7-1.3-5.1-3.7-6.9c-3.8-2.1-8.9-1-10.8,2.8l-14.2,23.8L183,252.2
	c-2.1-3.7-6.9-4.9-10.8-2.8c-3.7,2-5,7-2.8,10.8l16.4,28.3l-28.3,0.4c-4.4,0.1-7.9,3.4-7.9,7.8s3.8,7.8,7.9,7.8l37.4-0.3l29,50.1
	H165l-18-31.6c-2.1-3.7-6.9-5.3-10.8-3.1s-5,6.8-2.8,10.6l13.6,24.1h-32.1c-4.4,0-7.9,3.5-7.9,7.9s3.5,7.8,7.9,7.8h32.4l-13.7,25
	c-2.1,3.9-0.9,8.3,2.8,10.5c3.9,2.2,8.6,0.8,10.8-3l18.3-32.4h58.3l-29.6,51.3l-36.6-0.3c-4.1-0.4-7.9,3.3-7.9,7.7v0.3
	c0,4.1,3.5,7.7,7.9,7.8l27.5,0.3l-15.9,27.6c-2.2,3.8-0.9,8.6,2.8,10.6c3.9,2.1,8.6,1,10.8-2.8l16.1-27.9l14.6,24.4
	c1.8,3.8,7,5,10.8,2.7c2.4-1.5,3.7-3.7,3.7-6.7c0-1.5-0.4-2.8-1.1-4.1l-18.8-32l29.3-51.1L267,429l-18.9,31.9
	c-2.2,3.8-1.2,8.8,2.6,10.8c3.9,2.1,8.6,1,10.8-2.7l14.4-24.4l16.3,27.9c2.2,3.8,7,5.1,10.8,2.8c2.7-1.6,4-3.7,4-6.7
	c0-0.7-0.4-2.1-1.1-4L290,437l27.5-0.3c4.4,0,7.8-3.7,7.8-7.8v-0.3c0-4.4-3.6-7.7-8.1-7.7l-36.5,0.3L251.4,370h58l18.3,32.4
	c2.2,3.9,6.9,5.2,10.8,3c2.7-1.6,4-3.7,4-6.7c0-1.4-0.3-2.7-0.9-3.8L327.4,370h33c4.4,0,7.8-3.4,7.8-7.8s-3.4-7.9-7.8-7.9H328
	l13.6-24.1c0.6-1.1,0.9-2.4,0.9-3.7c0-3.1-1.3-5.4-4-6.9c-3.8-2.2-8.6-0.8-10.8,3.1L310,354.3h-58.9l29-50.1l37.1,0.3
	c4.4,0,8.1-3.4,8.1-7.8s-3.4-7.7-7.8-7.8l-28.5-0.4l16.6-28.3c0.6-1.1,0.9-2.6,0.9-4.1c0-3-1.2-5.1-3.7-6.7
	C299,247.1,294.1,248.5,292,252.2L292,252.2z"/>
<rect y="0" class="st1" width="500" height="500"/>
<path class="st0" d="M346,210.8l13.6-23.5l11.8,19.9c1.5,3.2,5.8,4.2,9,2.4s3.9-5.8,2.1-8.9L367,174.1l24.5-42.1l24.2,42.1
	l-15.5,26.5c-0.6,0.8-1,1.9-1,3.1c0,2.2,1.1,4.3,3.1,5.8c3.2,1.8,7.4,0.8,9-2.4l11.8-19.9l13.6,23.5c1.8,3.1,5.7,4.1,9,2.4
	c3.1-1.7,4.2-5.8,2.4-9l-13.7-23.7l23.7-0.4c3.7-0.1,6.6-2.8,6.6-6.5s-3.2-6.5-6.6-6.5l-31.2,0.2l-24.3-41.9h49.2l15,26.4
	c1.7,3.1,5.8,4.4,9,2.6s4.2-5.6,2.4-8.9l-11.4-20.1h26.8c3.7,0,6.6-3,6.6-6.6c0-3.7-3-6.5-6.6-6.5h-27.1l11.6-20.8
	c1.8-3.2,0.8-6.9-2.4-8.8c-3.2-1.8-7.2-0.7-9,2.5l-15.3,27.1h-48.7l24.7-42.8l30.5,0.2c3.4,0.4,6.6-2.7,6.6-6.4V63
	c0-3.4-2.9-6.5-6.6-6.5l-23-0.2l13.2-23.1c1.9-3.2,0.8-7.2-2.3-8.9c-3.3-1.8-7.1-0.9-9,2.4L423.3,50l-12.2-20.3
	c-1.5-3.2-5.8-4.2-9-2.2c-2,1.2-3.1,3.1-3.1,5.6c0,1.3,0.3,2.4,1,3.4l16,26.6l-24.5,42.7l-24.7-42.7l15.7-26.6c1.9-3.2,1-7.3-2.1-9
	c-3.3-1.8-7.2-0.8-9,2.2L359.3,50l-13.6-23.3c-1.9-3.2-5.8-4.3-9-2.4c-2.2,1.3-3.3,3.1-3.3,5.6c0,0.6,0.3,1.8,1,3.3l13.3,23.1
	l-23,0.2c-3.7,0-6.5,3.1-6.5,6.5v0.2c0,3.7,3,6.4,6.7,6.4l30.5-0.2l24.5,42.8h-48.5l-15.3-27.1c-1.8-3.2-5.8-4.4-9-2.5
	c-2.3,1.3-3.3,3.1-3.3,5.6c0,1.2,0.2,2.3,0.7,3.2l11.8,20.8h-27.6c-3.7,0-6.5,2.8-6.5,6.5s2.9,6.6,6.5,6.6h27.1l-11.3,20.1
	c-0.5,0.9-0.7,2-0.7,3.1c0,2.6,1.1,4.5,3.3,5.8c3.2,1.8,7.2,0.6,9-2.6l14.8-26.4h49.2l-24.2,41.9l-31-0.2c-3.7,0-6.7,2.8-6.7,6.5
	s2.8,6.5,6.5,6.5l23.8,0.4l-13.8,23.7c-0.5,0.9-0.7,2.1-0.7,3.4c0,2.5,1,4.3,3.1,5.6C340.1,215.1,344.2,213.8,346,210.8L346,210.8z"
	/>
</svg>
