<svg enable-background="new 0 0 500 500" viewBox="0 0 500 500" xmlns="http://www.w3.org/2000/svg"><path d="m0 0h500v500h-500z" fill="none"/><path d="m188.2 311.8-4.5 7.8-3.9-6.6c-.5-1.1-1.9-1.4-3-.8s-1.3 1.9-.7 3l5.2 8.8-8.2 14-8.1-14 5.2-8.8c.2-.3.3-.6.3-1 0-.7-.4-1.4-1-1.9-1.1-.6-2.5-.3-3 .8l-3.9 6.6-4.5-7.8c-.6-1-1.9-1.4-3-.8-1 .6-1.4 1.9-.8 3l4.6 7.9-7.9.1c-1.2 0-2.2.9-2.2 2.2 0 1.2 1.1 2.2 2.2 2.2l10.4-.1 8.1 13.9h-16.4l-5-8.8c-.6-1-1.9-1.5-3-.9s-1.4 1.9-.8 3l3.8 6.7h-9.1c-1.2 0-2.2 1-2.2 2.2s1 2.2 2.2 2.2h9l-3.9 6.9c-.6 1.1-.3 2.3.8 2.9s2.4.2 3-.8l5.1-9h16.2l-8.2 14.3-10.2-.1c-1.1-.1-2.2.9-2.2 2.1v.1c0 1.1 1 2.2 2.2 2.2l7.6.1-4.4 7.7c-.6 1.1-.3 2.4.8 3s2.4.3 3-.8l4.5-7.8 4.1 6.8c.5 1.1 1.9 1.4 3 .7.7-.4 1-1 1-1.8 0-.4-.1-.8-.3-1.1l-5.2-8.9 8.2-14.2 8.2 14.2-5.2 8.9c-.6 1.1-.3 2.4.7 3 1.1.6 2.4.3 3-.7l4-6.8 4.5 7.8c.6 1.1 1.9 1.4 3 .8.7-.4 1.1-1 1.1-1.9 0-.2-.1-.6-.3-1.1l-4.4-7.7 7.6-.1c1.2 0 2.2-1 2.2-2.2v-.1c0-1.2-1-2.1-2.2-2.1l-10.2.1-8.2-14.3h16.1l5.1 9c.6 1.1 1.9 1.5 3 .8.8-.4 1.1-1 1.1-1.9 0-.4-.1-.8-.2-1.1l-3.9-6.9h9.2c1.2 0 2.2-.9 2.2-2.2 0-1.2-1-2.2-2.2-2.2h-9l3.8-6.7c.2-.3.2-.7.2-1 0-.9-.4-1.5-1.1-1.9-1.1-.6-2.4-.2-3 .9l-4.9 8.8h-16.4l8.1-13.9 10.3.1c1.2 0 2.2-.9 2.2-2.2 0-1.2-.9-2.1-2.2-2.2l-7.9-.1 4.6-7.9c.2-.3.2-.7.2-1.1 0-.8-.3-1.4-1-1.8-1.1-1-2.4-.6-3 .5z" fill="#01d7da"/><path d="m0 0h500v500h-500z" fill="none"/><path d="m268.9 398.5-7.4 12.8-6.4-10.8c-.8-1.7-3.2-2.3-4.9-1.3-1.8 1-2.1 3.2-1.2 4.8l8.4 14.4-13.3 22.8-13.1-22.8 8.4-14.4c.3-.4.5-1 .5-1.7 0-1.2-.6-2.3-1.7-3.1-1.7-1-4-.4-4.9 1.3l-6.4 10.8-7.4-12.8c-1-1.7-3.1-2.2-4.9-1.3-1.7.9-2.3 3.2-1.3 4.9l7.4 12.8-12.8.2c-2 0-3.6 1.5-3.6 3.5s1.7 3.5 3.6 3.5l17.1-.1 13.1 22.7h-26.7l-8.2-14.3c-.9-1.7-3.1-2.4-4.9-1.4s-2.3 3.1-1.3 4.8l6.2 10.9h-14.6c-2 0-3.6 1.6-3.6 3.6s1.6 3.5 3.6 3.5h14.7l-6.3 11.3c-1 1.8-.4 3.8 1.3 4.7 1.7 1 3.9.4 4.9-1.3l8.3-14.7h26.5l-13.4 23.2-16.6-.1c-1.9-.2-3.6 1.5-3.6 3.5v.1c0 1.9 1.6 3.5 3.6 3.5l12.5.1-7.2 12.5c-1 1.7-.4 3.9 1.3 4.8 1.8 1 3.9.5 4.9-1.3l7.3-12.6 6.6 11c.8 1.7 3.2 2.3 4.9 1.2 1.1-.7 1.7-1.7 1.7-3 0-.7-.2-1.3-.5-1.9l-8.5-14.4 13.3-23.2 13.4 23.2-8.7 14.6c-1 1.7-.5 4 1.2 4.9 1.8 1 3.9.4 4.9-1.2l6.5-11 7.4 12.6c1 1.7 3.1 2.3 4.9 1.3 1.2-.7 1.8-1.7 1.8-3 0-.3-.2-1-.5-1.8l-7.2-12.5 12.5-.1c2 0 3.5-1.7 3.5-3.5v-.1c0-2-1.7-3.5-3.6-3.5l-16.5.1-13.3-23.2h26.3l8.3 14.7c1 1.8 3.1 2.4 4.9 1.3 1.2-.7 1.8-1.7 1.8-3 0-.6-.1-1.2-.4-1.7l-6.4-11.3h14.9c2 0 3.5-1.5 3.5-3.5s-1.6-3.6-3.5-3.6h-14.7l6.2-10.9c.3-.5.4-1.1.4-1.7 0-1.4-.6-2.5-1.8-3.1-1.7-1-3.9-.3-4.9 1.4l-8 14.3h-26.7l13.1-22.7 16.8.1c2 0 3.6-1.5 3.6-3.5s-1.5-3.5-3.5-3.5l-12.9-.2 7.5-12.8c.3-.5.4-1.2.4-1.9 0-1.3-.6-2.3-1.7-3-1.8-1.3-4-.6-4.9 1.1z" fill="#01d7da"/><path d="m293.3 379.7 6.2-10.7 5.4 9c.7 1.4 2.6 1.9 4.1 1.1s1.8-2.6 1-4l-7-12 11.1-19.1 11 19.1-7 12c-.3.4-.4.9-.4 1.4 0 1 .5 1.9 1.4 2.6 1.5.8 3.4.4 4.1-1.1l5.4-9 6.2 10.7c.8 1.4 2.6 1.9 4.1 1.1 1.4-.8 1.9-2.6 1.1-4.1l-6.2-10.7 10.7-.2c1.7 0 3-1.3 3-2.9 0-1.7-1.4-3-3-2.9h-14.5l-11-19h22.3l6.8 11.9c.8 1.4 2.6 2 4.1 1.2s1.9-2.6 1.1-4l-5.1-9.1h12.2c1.7 0 3-1.3 3-3s-1.3-2.9-3-2.9h-12.4l5.3-9.4c.8-1.5.4-3.1-1.1-4-1.5-.8-3.3-.3-4.1 1.1l-6.9 12.3h-22.1l11.2-19.4 13.8.1c1.6.2 3-1.2 3-2.9v-.1c0-1.6-1.3-2.9-3-2.9l-10.4-.1 6-10.4c.8-1.5.3-3.3-1.1-4-1.5-.8-3.2-.4-4.1 1.1l-6.1 10.6-5.5-9.2c-.7-1.4-2.6-1.9-4.1-1-.9.6-1.4 1.4-1.4 2.5 0 .6.1 1.1.4 1.6l7.1 12.1-11.1 19.3-11.2-19.3 7.1-12.1c.8-1.4.4-3.3-1-4.1-1.5-.8-3.2-.4-4.1 1l-5.5 9.2-6.2-10.6c-.8-1.5-2.6-1.9-4.1-1.1-1 .6-1.5 1.4-1.5 2.5 0 .3.2.8.4 1.5l6 10.4-10.4.1c-1.7 0-2.9 1.4-2.9 2.9v.1c0 1.7 1.4 2.9 3 2.9l13.8-.1 11.1 19.4h-22l-6.9-12.3c-.8-1.5-2.6-2-4.1-1.1-1 .6-1.5 1.4-1.5 2.5 0 .5.1 1 .3 1.4l5.3 9.4h-12.5c-1.7 0-3 1.3-3 2.9 0 1.7 1.3 3 3 3h12.3l-5.1 9.1c-.2.4-.3.9-.3 1.4 0 1.2.5 2 1.5 2.6 1.4.8 3.2.3 4.1-1.2l6.7-11.9h22.3l-11 19-14-.1c-1.7 0-3 1.3-3 2.9 0 1.7 1.3 2.9 2.9 2.9l10.8.2-6.3 10.7c-.2.4-.3 1-.3 1.6 0 1.1.5 1.9 1.4 2.5 1.8 1 3.6.5 4.4-.9z" fill="#01d7da"/><g fill="#009f59"><path d="m500 155.7c0-63.4-54.7-114.9-122.1-114.9-11.9 0-23.3 1.6-34.2 4.6-16.7-26.6-49.5-44.7-87.1-44.7-48.1 0-88.1 29.5-97.1 68.6-14.2-5.9-29.8-9.3-46.4-9.3-62.5.1-113.1 47.2-113.1 105.3 0 1.2.1 2.4.1 3.7 0 .7-.1 1.3-.1 2 0 54.8 44.8 99.7 99.6 99.7h278.3.1c67.4-.2 122-51.6 122-115"/><path d="m431.3 452.3c0-15.2 8.5-25.7 19.2-38.4 10.6-12.7 24.6-29 24.6-51.1s-14-37.2-24.6-51.1l-12.7-17.5h-44l20.2 30.2c10.4 14.5 19.2 23.2 19.2 38.4s-8.5 25.7-19.2 38.4c-10.6 12.7-24.6 29-24.6 51.1 0 19.8 11.7 34.9 21.2 47.7h47.4c-2.1-3.4-5.4-7-7.5-9.3-10.7-13-19.2-23.4-19.2-38.4"/><path d="m66.9 452.3c0-15.2 8.5-25.7 19.2-38.4 10.6-12.7 24.6-29 24.6-51.1s-14-37.2-24.6-51.1l-12.7-17.5h-44l20.2 30.2c10.4 14.5 19.2 23.2 19.2 38.4s-8.5 25.7-19.2 38.4c-10.6 12.7-24.6 29-24.6 51.1 0 19.8 11.7 34.9 21.2 47.7h47.4c-2.1-3.4-5.4-7-7.5-9.3-10.7-13-19.2-23.4-19.2-38.4"/></g></svg>