<svg version="1.0" id="Calque_1" xmlns="http://www.w3.org/2000/svg" xmlns:xlink="http://www.w3.org/1999/xlink" x="0px" y="0px"
	 viewBox="0 0 500 500" style="enable-background:new 0 0 500 500;" xml:space="preserve">
<g>
	<path style="fill:#009F59;" d="M343.7,255.8c0,4.3-0.5,8.4-1.3,12.5c1.3-0.1,2.6-0.2,4-0.2c25.3,0,47.5,12.6,60.1,31.5
		c17.9-12.7,29.5-33.6,29.5-57.2c0-38.8-31.5-70.3-70.3-70.3c-22.5,0-42.4,10.6-55.3,27C330.4,211,343.7,231.9,343.7,255.8
		L343.7,255.8z"/>
	<path style="fill:#009F59;" d="M362.2,156.6h2.3c3,0,5.4-2.4,5.4-5.4v-37.5c0-3-2.4-5.4-5.4-5.4h-2.3c-3,0-5.4,2.4-5.4,5.4v37.5
		C356.9,154.2,359.3,156.6,362.2,156.6L362.2,156.6z"/>
	<path style="fill:#009F59;" d="M425.7,181.7c2.1,2.1,5.5,2.1,7.6,0l26.5-26.5c2.1-2.1,2.1-5.5,0-7.6l-1.6-1.6
		c-2.1-2.1-5.5-2.1-7.6,0l-26.5,26.5c-2.1,2.1-2.1,5.5,0,7.6L425.7,181.7L425.7,181.7z"/>
	<path style="fill:#009F59;" d="M295.8,181.7c2.1,2.1,5.5,2.1,7.6,0l1.6-1.6c2.1-2.1,2.1-5.5,0-7.6l-26.5-26.5
		c-2.1-2.1-5.5-2.1-7.6,0l-1.6,1.6c-2.1,2.1-2.1,5.5,0,7.6L295.8,181.7L295.8,181.7z"/>
	<g>
		<defs>
			<rect id="SVGID_1_" x="0" width="500" height="500"/>
		</defs>
		<clipPath id="SVGID_2_">
			<use xlink:href="#SVGID_1_"  style="overflow:visible;"/>
		</clipPath>
		<path style="clip-path:url(#SVGID_2_);fill:#009F59;" d="M434.5,300.4c-2.1-2.1-5.5-2.1-7.6,0l-1.6,1.6c-2.1,2.1-2.1,5.5,0,7.6
			l26.5,26.5c2.1,2.1,5.5,2.1,7.6,0l1.6-1.6c2.1-2.1,2.1-5.5,0-7.6L434.5,300.4L434.5,300.4z"/>
		<path style="clip-path:url(#SVGID_2_);fill:#009F59;" d="M494.6,235.9h-37.5c-3,0-5.4,2.4-5.4,5.4v2.3c0,3,2.4,5.4,5.4,5.4h37.5
			c3,0,5.4-2.4,5.4-5.4v-2.3C500,238.3,497.6,235.9,494.6,235.9L494.6,235.9z"/>
		<path style="clip-path:url(#SVGID_2_);fill:#009F59;" d="M272.7,199.3c-5.7,0-11.5,0.8-17,2.3l-3.8,1l-2.1-3.3
			c-8.4-13.3-24.6-21.6-42.3-21.6c-22.9,0-42.7,13.8-47,32.8l-1.4,6.2l-5.8-2.4c-7.2-3-14.9-4.6-22.9-4.6c-30.6,0-55.5,23-55.5,51.3
			c0,0.5,0,1,0,1.5l0,0.5l0,0.7c0,2,0.2,3.9,0.4,5.8c0.4,0.1,0.8,0.1,1.2,0.2c10.7-14.5,29.2-23.3,49.1-23.3
			c25.5,0,47.9,14.5,55.7,35.3c6.9-2.2,14.1-3.4,21.5-3.4c0.2,0,0.4,0,0.6,0c0.2,0,0.4,0,0.6,0c7.4,0,14.6,1.1,21.5,3.4
			c7.7-20.8,30.1-35.3,55.7-35.3c19.9,0,38.4,8.8,49.1,23.3c0.3-0.1,0.6-0.1,0.8-0.1c1.2-4.5,1.9-9.1,1.9-13.9
			C333,224.7,306,199.3,272.7,199.3L272.7,199.3z"/>
		<path style="clip-path:url(#SVGID_2_);fill:#009F59;" d="M125.6,257.2c-17.8,0-34,8.3-42.3,21.6l-2.1,3.3l-3.8-1
			c-5.5-1.5-11.3-2.3-17-2.3C27.1,278.7,0,304.1,0,335.2c0,31.1,27,56.4,60.3,56.5l1,0h101.9c-15.2-10.7-25.2-28.3-25.2-48.3
			c0-0.3,0-0.6,0-0.9c0-0.8,0-1.5,0-2.1c0-23.1,13.6-43.3,33.8-53.9C165.8,269.3,147.1,257.2,125.6,257.2L125.6,257.2z"/>
	</g>
	<path style="fill:#009F59;" d="M346.4,278.7c-5.7,0-11.4,0.8-17,2.3l-3.8,1l-2.1-3.3c-8.4-13.3-24.6-21.6-42.3-21.6
		c-22.9,0-42.7,13.8-47,32.8l-1.4,6.2l-5.8-2.4c-7.2-3-14.9-4.6-22.9-4.6c-30.6,0-55.5,23-55.5,51.3c0,0.5,0,1,0,1.5l0,0.5l0,0.8
		c0,26.8,21.6,48.5,48.3,48.5l149.7,0c33.2,0,60.3-25.4,60.3-56.5C406.7,304.1,379.6,278.7,346.4,278.7L346.4,278.7z"/>
</g>
</svg>
