<svg enable-background="new 0 0 502.2 500" viewBox="0 0 502.2 500" xmlns="http://www.w3.org/2000/svg" xmlns:xlink="http://www.w3.org/1999/xlink"><clipPath id="a"><path d="m0 0h500v500h-500z"/></clipPath><path clip-path="url(#a)" d="m448.9 197.7h-143.4v-144.4c0-15-5.1-27.7-15.4-37.9-10.2-10.3-22.9-15.4-37.9-15.4s-27.7 5.1-37.9 15.4c-10.2 10.2-15.4 22.9-15.4 37.9v144.5h-143.4c-15 0-27.7 5-37.9 14.9-10.3 9.8-15.4 22.3-15.4 37.3s5.1 27.7 15.4 37.9c10.2 10.2 22.9 15.4 37.9 15.4h143.4v144.5c0 15 5.1 27.5 15.4 37.4 10.2 9.9 22.9 14.9 37.9 14.9s27.7-4.9 37.9-14.9c10.2-9.9 15.4-22.4 15.4-37.4v-144.5h143.4c15 0 27.7-5.1 37.9-15.4 10.2-10.2 15.4-22.9 15.4-37.9s-5.1-27.5-15.4-37.4c-10.2-9.9-22.9-14.9-37.9-14.9z" fill="#009f59"/></svg>