<svg enable-background="new 0 0 500 345.4" viewBox="0 0 500 345.4" xmlns="http://www.w3.org/2000/svg"><g fill="#009f59"><path d="m123.4 312.5h-106.5c-5.8 0-10.5-4.7-10.5-10.5 0-5.8 4.7-10.5 10.5-10.5h106.6c5.8 0 10.5 4.7 10.5 10.5-.1 5.8-4.8 10.5-10.6 10.5z"/><path d="m345 312.4h-188.6c-5.8 0-10.4-4.7-10.4-10.4 0-5.8 4.7-10.4 10.4-10.4h188.6c5.8 0 10.4 4.7 10.4 10.4 0 5.7-4.7 10.4-10.4 10.4z"/><path d="m238.3 345.4h106.6c5.8 0 10.5-4.7 10.5-10.5 0-5.8-4.7-10.5-10.5-10.5h-106.6c-5.8 0-10.5 4.7-10.5 10.5.1 5.8 4.7 10.5 10.5 10.5z"/><path d="m16.8 345.3h188.5c5.8 0 10.4-4.7 10.4-10.4 0-5.8-4.7-10.4-10.4-10.4h-188.5c-5.8 0-10.4 4.7-10.4 10.4 0 5.7 4.6 10.4 10.4 10.4z"/><path d="m366.4 236.6v-.1c0-46.5-40.1-84.1-89.5-84.1-8.7 0-17.1 1.2-25.1 3.4-12.3-19.5-36.2-32.8-63.8-32.8-35.2 0-64.6 21.6-71.1 50.3-10.4-4.3-21.9-6.8-34-6.8-45.8-.1-82.9 34.5-82.9 77.1 0 .9 0 1.8.1 2.7 0 .5-.1.9-.1 1.4 0 11 2.5 21.5 6.9 30.9h347.5c7.6-12.4 12-26.7 12-42z"/></g><path d="m297.6 0c-37.5 25.3-62.5 67.6-64.1 115.9 10.1 5.5 18.9 12.9 25.7 21.8 7.3-1.5 14.8-2.3 22.4-2.3 56.9 0 103.2 43.8 103.2 97.6 0 11.8-2.2 23.1-6.3 33.6h.5c50.3 0 94.7-25.5 120.9-64.3.1 0-190.3 10.7-202.3-202.3z" fill="#9ea3a0"/></svg>