<?xml version="1.0" encoding="utf-8"?>
<!-- Generator: Adobe Illustrator 23.0.1, SVG Export Plug-In . SVG Version: 6.00 Build 0)  -->
<svg version="1.1" id="Calque_1" xmlns="http://www.w3.org/2000/svg" xmlns:xlink="http://www.w3.org/1999/xlink" x="0px" y="0px"
	 viewBox="0 0 500 500" style="enable-background:new 0 0 500 500;" xml:space="preserve">
<style type="text/css">
	.st0{fill:#FFDC59;}
	.st1{fill:none;}
	.st2{fill:#009F59;stroke:#FFFFFF;stroke-width:14;stroke-miterlimit:10;}
	.st3{fill:#009F59;}
</style>
<g>
	<path class="st0" d="M408,199c0.1-57.5-46.5-104.1-104-104.2c-51.3-0.1-95,37.3-102.9,87.9c0.3,0.4,0.7,0.9,1.1,1.2
		c9.2-2,18.7-3,28.1-3c65.6,0,119.8,46.8,127.5,106.8C389,269,408,235.3,408,199L408,199z"/>
	<path class="st0" d="M300.3,72c5.3,0,9.6-4.3,9.7-9.6V10.1c0.2-5.3-4-9.8-9.3-9.9c-5.3-0.2-9.8,4-9.9,9.3v0.6v52.2
		C290.8,67.7,295.1,71.9,300.3,72L300.3,72z"/>
	<path class="st0" d="M405.1,107.9l37-37c3.8-3.8,3.8-9.9,0-13.6s-9.9-3.8-13.6,0l-37,37c-3.8,3.8-3.8,9.9,0,13.6
		C395.2,111.6,401.3,111.7,405.1,107.9z"/>
	<path class="st0" d="M199.1,107.9c3.8,3.7,9.9,3.6,13.6-0.3c3.6-3.7,3.6-9.6,0-13.3l-37-37c-3.8-3.7-9.9-3.6-13.6,0.3
		c-3.6,3.7-3.6,9.6,0,13.3L199.1,107.9z"/>
	<path class="st0" d="M406.8,286.1c-3.8-3.8-9.9-3.8-13.6,0s-3.8,9.9,0,13.6l37,37c3.8,3.8,9.9,3.8,13.6,0s3.8-9.9,0-13.6
		L406.8,286.1z"/>
</g>
<path class="st1" d="M0,0h500v500H0V0z"/>
<path class="st0" d="M493.1,189.4h-52.2c-5.3,0.2-9.5,4.6-9.3,9.9c0.2,5.1,4.2,9.2,9.3,9.3h52.2c5.3,0.2,9.8-4,9.9-9.3
	c0.2-5.3-4-9.8-9.3-9.9C493.5,189.4,493.3,189.4,493.1,189.4z"/>
<rect y="0" class="st1" width="500" height="500"/>
<g>
	<path class="st2" d="M310.3,154.9c-8.9,0-17.8,1.2-26.4,3.5l-6.9,1.9l-3.9-6.1c-13-20.6-38.1-33.3-65.6-33.3
		c-35.4,0-66.1,21.2-72.7,50.5l-2.5,11.2l-10.7-4.4c-11.3-4.7-23.3-7.1-35.5-7C38.6,171.2,0,206.8,0,250.6l0.1,2.9L0,255.1
		c0,41.3,33.4,74.8,74.7,74.9h235.7c51.6,0,93.6-39.2,93.6-87.5S362,154.9,310.3,154.9L310.3,154.9z"/>
</g>
<g>
	<path class="st3" d="M162.7,378.8L153,362c-1.9-3.3-6.1-4.5-9.4-2.6c-1.1,0.6-1.9,1.5-2.6,2.6l-10.6,18.4
		c-1.8,3.1-2.6,6.7-2.4,10.2c0.2,10.5,8.9,18.8,19.4,18.6s18.8-8.9,18.6-19.4C166.1,385.8,165,381.9,162.7,378.8L162.7,378.8z"/>
	<path class="st3" d="M277.6,378.2L264,354.6c-1.9-3.3-6.1-4.5-9.4-2.6c-1.1,0.6-1.9,1.5-2.6,2.6l-14.7,25.5
		c-2.2,3.9-3.3,8.4-3.1,12.9c0.8,13.1,12,23.1,25.1,22.4c12.5-0.7,22.3-11,22.4-23.6C281.9,386.9,280.5,382.2,277.6,378.2
		L277.6,378.2z"/>
	<path class="st3" d="M205.9,407.6c-1.9-3.3-6.1-4.5-9.4-2.6c-1.1,0.6-1.9,1.5-2.6,2.6l-23.3,40.3h0.1c-3,5.4-4.5,11.4-4.3,17.6
		c0.4,18.6,15.8,33.3,34.3,32.9c18.4-0.4,33.1-15.6,32.9-34c0.1-6.9-2-13.5-6-19.1L205.9,407.6z"/>
</g>
</svg>
