<svg enable-background="new 0 0 502.7 500" viewBox="0 0 502.7 500" xmlns="http://www.w3.org/2000/svg" xmlns:xlink="http://www.w3.org/1999/xlink"><clipPath id="a"><path d="m0 0h500v500h-500z"/></clipPath><path clip-path="url(#a)" d="m502.7 250c0-138.1-111.9-250-250-250s-250 111.9-250 250 111.9 250 250 250 250-111.9 250-250zm-175.6 12.1c0 4.5-1.5 8.3-4.6 11.4s-6.9 4.6-11.4 4.6h-43v43.3c0 4.5-1.5 8.2-4.6 11.2s-6.9 4.5-11.4 4.5-8.3-1.5-11.4-4.5-4.6-6.7-4.6-11.2v-43.4h-43c-4.5 0-8.3-1.5-11.4-4.6s-4.6-6.9-4.6-11.4 1.5-8.2 4.6-11.2 6.9-4.5 11.4-4.5h43v-43.3c0-4.5 1.5-8.3 4.6-11.4s6.9-4.6 11.4-4.6 8.3 1.5 11.4 4.6 4.6 6.9 4.6 11.4v43.3h43c4.5 0 8.3 1.5 11.4 4.5s4.6 6.8 4.6 11.3z" fill="#009f59"/></svg>