<svg enable-background="new 0 0 500 500" viewBox="0 0 500 500" xmlns="http://www.w3.org/2000/svg"><g fill="#ffdc59"><path d="m378.2 307.8c-28.3 67.1-105.7 98.5-172.7 70.2s-98.5-105.7-70.2-172.7 105.7-98.5 172.7-70.2l.3.1c66.9 28.5 98.1 105.7 69.9 172.6z"/><path d="m251.1 87.3c6.6 0 11.9-5.3 11.9-11.9v-64.6c-.2-6.6-5.7-11.7-12.2-11.5-6.3.2-11.3 5.2-11.5 11.5v64.7c-.1 6.5 5.2 11.8 11.8 11.8z"/><path d="m380.8 131.9 45.8-45.8c4.7-4.6 4.8-12.1.2-16.9-4.6-4.7-12.1-4.8-16.9-.2-.1.1-.2.2-.2.2l-45.7 45.8c-4.6 4.7-4.5 12.3.2 16.9 4.7 4.5 12 4.5 16.6 0z"/><path d="m125.8 131.9c4.8 4.5 12.4 4.2 16.9-.6 4.3-4.6 4.3-11.7 0-16.2l-45.8-45.9c-4.7-4.7-12.2-4.7-16.9 0s-4.7 12.2 0 16.9z"/></g><path d="m382.9 352.5c-4.8-4.5-12.4-4.2-16.9.6-4.2 4.6-4.2 11.7 0 16.2l45.8 45.8c4.7 4.7 12.2 4.7 16.9 0s4.7-12.2 0-16.9z" fill="#009f59"/><path d="m489.7 232.8h-64.7c-6.6-.2-12 5-12.2 11.5-.2 6.6 5 12 11.5 12.2h.7 64.7c6.6-.2 11.7-5.7 11.5-12.2-.2-6.3-5.2-11.3-11.5-11.5z" fill="#ffdc59"/><path d="m86.7 232.8h-64.7c-6.6-.2-12 5-12.2 11.5-.2 6.6 5 12 11.5 12.2h.7 64.7c6.6-.2 11.7-5.7 11.5-12.2-.2-6.3-5.2-11.3-11.5-11.5z" fill="#ffdc59"/><path d="m351.9 302.9c-10.3 0-20.5 1.4-30.4 4.1l-8 2.2-4.4-7c-14.9-23.6-43.8-38.2-75.4-38.2-40.8 0-75.9 24.5-83.6 58.1l-3 12.9-12.2-5.1c-12.9-5.4-26.8-8.2-40.9-8.1-54.5-.2-98.9 40.8-98.9 91.2v3.6c0 .5 0 1.1-.1 1.6 0 47.4 38.4 85.9 85.9 86h271c59.4 0 107.6-45.2 107.6-100.6s-48.3-100.7-107.6-100.7z" fill="#009f59" stroke="#fff" stroke-miterlimit="10" stroke-width="14"/></svg>