<svg enable-background="new 0 0 500.6 500" viewBox="0 0 500.6 500" xmlns="http://www.w3.org/2000/svg" xmlns:xlink="http://www.w3.org/1999/xlink"><clipPath id="a"><path d="m0 0h500v500h-500z"/></clipPath><g fill="#009f59"><path clip-path="url(#a)" d="m500.6.4h-500v116.4h.8c-.1.6-.5 1.1-.3 1.7l25.5 106.7c.9 3.6 5.9 4 7.2.5l37.7-97.9c3.3-8.6 15.9-7.5 17.6 1.6l43.8 174.3c.8 4.1 6.7 4.1 7.5 0l39.4-151.5c1.9-10.2 16.6-9.8 18.1.5l52.4 234.3c.7 4.3 6.9 4.2 7.5-.1l43.3-230c1.2-10.4 16.1-11 18.1-.7l38.6 147.3c.8 4.1 6.7 4.1 7.5 0l43.8-174.3c1.8-9.1 14.3-10.2 17.6-1.6l37.9 98.4c1.3 3.4 6.3 3.2 7.2-.4l28.4-107.1c.2-.6.2-1.3 0-1.9h.5v-116.2z"/><path d="m432.6 452.3c0-15.2 8.5-25.7 19.2-38.4 10.6-12.7 24.6-29 24.6-51.1s-14-37.2-24.6-51.1l-12.8-17.5h-44l20.2 30.2c10.4 14.5 19.2 23.2 19.2 38.4s-8.5 25.7-19.2 38.4c-10.6 12.7-24.6 29-24.6 51.1 0 19.8 11.7 34.9 21.2 47.7h47.4c-2.1-3.4-5.4-7-7.5-9.3-10.7-13-19.1-23.4-19.1-38.4"/><path d="m68.1 452.3c0-15.2 8.5-25.7 19.2-38.4 10.6-12.7 24.6-29 24.6-51.1s-14-37.2-24.6-51.1l-12.7-17.5h-44l20.2 30.2c10.4 14.5 19.2 23.2 19.2 38.4s-8.5 25.7-19.2 38.4c-10.6 12.7-24.6 29-24.6 51.1 0 19.8 11.7 34.9 21.2 47.7h47.4c-2.1-3.4-5.4-7-7.5-9.3-10.7-13-19.2-23.4-19.2-38.4"/></g></svg>