<svg enable-background="new 0 0 200 88.6" viewBox="0 0 200 88.6" xmlns="http://www.w3.org/2000/svg"><g fill="#009f59"><path d="m99.52 34.801c-2.56 0-4.68-2.119-4.68-4.682v-25.437c0-2.564 2.12-4.682 4.68-4.682 2.56 0 4.68 2.118 4.68 4.682v25.438c.04 2.601-2.08 4.681-4.68 4.681z"/><path d="m148.4 50.401c-1.84-1.84-1.84-4.799 0-6.64l18-18c1.84-1.842 4.8-1.842 6.64 0 1.84 1.841 1.84 4.8 0 6.64l-18 18c-1.84 1.8-4.84 1.8-6.64 0z"/><path d="m27.76 25.121c-1.84 1.84-1.84 4.801 0 6.643l18 18c1.84 1.84 4.8 1.84 6.64 0 1.84-1.842 1.84-4.803 0-6.645l-18-18c-1.84-1.799-4.84-1.799-6.64.002z"/><path d="m200 83.881c0 2.563-2.12 4.682-4.68 4.682h-25.44c-2.56 0-4.68-2.119-4.68-4.682 0-2.563 2.12-4.682 4.68-4.682h25.44c2.56.002 4.68 2.121 4.68 4.682z"/><path d="m34.8 83.881c0 2.563-2.12 4.682-4.68 4.682h-25.44c-2.56 0-4.68-2.119-4.68-4.682 0-2.563 2.12-4.682 4.68-4.682h25.44c2.6.002 4.68 2.121 4.68 4.682z"/></g></svg>