<svg enable-background="new 148.5 33.5 45 45" viewBox="148.5 33.5 45 45" xmlns="http://www.w3.org/2000/svg" xmlns:xlink="http://www.w3.org/1999/xlink"><clipPath id="a"><path d="m152.135 37.135h37.73v37.73h-37.73z"/></clipPath><clipPath id="b"><path d="m152.135 37.135h37.73v37.73h-37.73z"/></clipPath><clipPath id="c"><path d="m152.135 37.135h37.73v37.73h-37.73z"/></clipPath><g fill="#009f59"><path clip-path="url(#a)" d="m161.945 44.245-2.49-4.318c-.68-1.174-2.381-1.174-3.061 0l-2.717 4.712h.009c-.437.771-.671 1.668-.629 2.625.117 2.523 2.18 4.561 4.703 4.653 2.776.101 5.064-2.122 5.064-4.88-.007-1.04-.326-2.004-.879-2.792z"/><path clip-path="url(#b)" d="m187.862 44.094-3.514-6.069c-.679-1.175-2.381-1.175-3.06 0l-3.79 6.556h.017c-.553.973-.838 2.105-.789 3.313.151 3.136 2.7 5.659 5.828 5.802 3.504.159 6.389-2.642 6.389-6.104.008-1.31-.394-2.508-1.081-3.498z"/><path clip-path="url(#c)" d="m171.906 51.648c-.679-1.174-2.381-1.174-3.06 0l-5.979 10.347h.017c-.755 1.325-1.165 2.876-1.107 4.52.143 4.46 3.723 8.116 8.175 8.334 4.972.26 9.088-3.706 9.088-8.619 0-1.837-.57-3.521-1.542-4.922z"/></g></svg>