<svg id="Calque_1" data-name="Calque 1" xmlns="http://www.w3.org/2000/svg" xmlns:xlink="http://www.w3.org/1999/xlink" viewBox="0 0 500 318"><defs><style>.cls-1{fill:none;}.cls-2{fill:#009f59;}.cls-3{clip-path:url(#clip-path);}</style><clipPath id="clip-path"><rect class="cls-1" x="182" width="318" height="318"/></clipPath></defs><title>76</title><path class="cls-2" d="M211.42,198.65a67.25,67.25,0,0,0-18,2.44l-4.74,1.34-2.59-4.15c-8.82-14-25.93-22.67-44.68-22.67-24.15,0-45,14.52-49.56,34.45l-1.78,7.63-7.26-3a62.46,62.46,0,0,0-24.22-4.82C26.27,209.76,0,234.06,0,263.92v2.15a4.82,4.82,0,0,1-.07,1,51,51,0,0,0,50.9,51H211.42c35.19,0,63.78-26.82,63.78-59.64s-28.59-59.71-63.78-59.71Z"/><g class="cls-3"><path class="cls-2" d="M416.43,193.53A84.37,84.37,0,1,1,371.72,83.06a84.5,84.5,0,0,1,44.71,110.47Z"/></g><g class="cls-3"><path class="cls-2" d="M336,57.81h0a7.85,7.85,0,0,1-7.83-7.76V7.76A7.81,7.81,0,0,1,336,0h0a7.84,7.84,0,0,1,7.82,7.76V50.05A7.89,7.89,0,0,1,336,57.81Z"/></g><path class="cls-2" d="M409.82,86.88h0a7.75,7.75,0,0,1,0-11L439.77,46a7.76,7.76,0,0,1,11,0h0a7.75,7.75,0,0,1,0,11L420.82,86.88a7.76,7.76,0,0,1-11,0Z"/><path class="cls-2" d="M223.91,46h0a7.77,7.77,0,0,0,0,11l30,29.89a7.76,7.76,0,0,0,11,0h0a7.77,7.77,0,0,0,0-11L234.92,46a7.88,7.88,0,0,0-11,0Z"/><path class="cls-2" d="M337.37,260.19h0a7.84,7.84,0,0,0-7.82,7.76v42.29a7.81,7.81,0,0,0,7.82,7.76h0a7.85,7.85,0,0,0,7.83-7.76V268a7.85,7.85,0,0,0-7.83-7.76Z"/><path class="cls-2" d="M411.21,231.12h0a7.77,7.77,0,0,0,0,11l30,29.89a7.76,7.76,0,0,0,11,0h0a7.75,7.75,0,0,0,0-11l-29.95-29.89a7.77,7.77,0,0,0-11,0Z"/><path class="cls-2" d="M225.31,272h0a7.77,7.77,0,0,1,0-11l30-29.89a7.76,7.76,0,0,1,11,0h0a7.77,7.77,0,0,1,0,11l-30,29.89a7.87,7.87,0,0,1-11,0Z"/><path class="cls-2" d="M500,160.65h0a7.81,7.81,0,0,1-7.82,7.76H449.82a7.84,7.84,0,0,1-7.82-7.76h0a7.8,7.8,0,0,1,7.82-7.76h42.36a7.73,7.73,0,0,1,7.82,7.76Z"/><path class="cls-2" d="M239.94,160.65h0a7.81,7.81,0,0,1-7.82,7.76h-42.3a7.84,7.84,0,0,1-7.82-7.76h0a7.81,7.81,0,0,1,7.82-7.76h42.36a7.72,7.72,0,0,1,7.76,7.76Z"/></svg>