<svg enable-background="new 0 0 607.3 500" viewBox="0 0 607.3 500" xmlns="http://www.w3.org/2000/svg" xmlns:xlink="http://www.w3.org/1999/xlink"><clipPath id="a"><path d="m0 0h500v500h-500z"/></clipPath><clipPath id="b"><path d="m0 .5h499v499h-499z"/></clipPath><clipPath id="c" clip-path="url(#b)"><path d="m224.5 1.3c-117 11.6-211.6 106.2-223.2 223.2-.9 8.4-1.3 16.8-1.3 25.1v.8c.2 137.8 111.9 249.5 249.8 249.6h.5c8.3 0 16.7-.4 25.2-1.3 117-11.6 211.6-106.2 223.2-223.2 14.8-149.5-102.2-275.5-248.7-275.5-8.4 0-16.9.4-25.5 1.3z"/></clipPath><clipPath id="d" clip-path="url(#c)"><path d="m0 0h500v500h-500z"/></clipPath><path clip-path="url(#a)" d="m224.5 1.3c-117 11.6-211.6 106.2-223.2 223.2-.9 8.4-1.3 16.8-1.3 25.1v.8c.2 137.8 111.9 249.5 249.8 249.6h.5c8.3 0 16.7-.4 25.2-1.3 117-11.6 211.6-106.2 223.2-223.2 14.8-149.5-102.2-275.5-248.7-275.5-8.4 0-16.9.4-25.5 1.3z" fill="#009f59"/><path clip-path="url(#d)" d="m138.1 226c-14.7 148.7 109.3 272.7 258 258 110.1-10.9 199.1-99.9 210-210 14.7-148.7-109.3-272.7-258-258-110 10.9-199.1 99.9-210 210" fill="#005c33"/></svg>