<svg viewBox="0 0 500 500" xmlns="http://www.w3.org/2000/svg"><path d="m0 0h500v500h-500z" fill="none"/><path d="m368.6 304.3c-28.6 67.3-106.5 98.7-174 70.2a132.37 132.37 0 0 1 -70.3-173.7c28.6-67.4 106.5-98.7 174-70.2s99 106.4 70.3 173.7z" fill="#ffd959"/><path d="m0 0h500v500h-500z" fill="none"/><g fill="#ffd959"><path d="m242.1 90.9a12.34 12.34 0 0 1 -12.3-12.2v-66.5a12.27 12.27 0 0 1 12.3-12.2 12.34 12.34 0 0 1 12.3 12.2v66.5a12.4 12.4 0 0 1 -12.3 12.2z"/><path d="m358.2 136.6a12.19 12.19 0 0 1 0-17.3l47.1-47a12.19 12.19 0 0 1 17.3 0 12.19 12.19 0 0 1 0 17.3l-47.1 47a12.19 12.19 0 0 1 -17.3 0z"/><path d="m65.9 72.3a12.19 12.19 0 0 0 0 17.3l47.1 47a12.19 12.19 0 0 0 17.3 0 12.19 12.19 0 0 0 0-17.3l-47.1-47a12.38 12.38 0 0 0 -17.3 0z"/><path d="m244.3 409.1a12.34 12.34 0 0 0 -12.3 12.2v66.5a12.27 12.27 0 0 0 12.3 12.2 12.34 12.34 0 0 0 12.3-12.2v-66.5a12.34 12.34 0 0 0 -12.3-12.2z"/><path d="m360.4 363.4a12.19 12.19 0 0 0 0 17.3l47.1 47a12.19 12.19 0 0 0 17.3 0 12.19 12.19 0 0 0 0-17.3l-47.1-47a12.19 12.19 0 0 0 -17.3 0z"/><path d="m68.1 427.7a12.19 12.19 0 0 1 0-17.3l47.1-47a12.19 12.19 0 0 1 17.3 0 12.19 12.19 0 0 1 0 17.3l-47.1 47a12.38 12.38 0 0 1 -17.3 0z"/><path d="m500 252.6a12.27 12.27 0 0 1 -12.3 12.2h-66.6a12.34 12.34 0 0 1 -12.3-12.2 12.27 12.27 0 0 1 12.3-12.2h66.6a12.14 12.14 0 0 1 12.3 12.2z"/><path d="m91.1 252.6a12.27 12.27 0 0 1 -12.3 12.2h-66.5a12.34 12.34 0 0 1 -12.3-12.2 12.27 12.27 0 0 1 12.3-12.2h66.6a12.12 12.12 0 0 1 12.2 12.2z"/></g></svg>