<svg enable-background="new 0 0 500 303.5" viewBox="0 0 500 303.5" xmlns="http://www.w3.org/2000/svg"><g fill="#009f59"><path d="m168.4 258.7h-145.4c-7.9 0-14.3-6.4-14.3-14.3 0-7.9 6.4-14.3 14.3-14.3h145.4c7.9 0 14.3 6.4 14.3 14.3 0 7.8-6.4 14.3-14.3 14.3z"/><path d="m470.7 258.5h-257.2c-7.9 0-14.2-6.4-14.2-14.2 0-7.9 6.4-14.2 14.2-14.2h257.3c7.9 0 14.2 6.4 14.2 14.2 0 7.8-6.4 14.2-14.3 14.2z"/><path d="m325.2 303.5h145.4c7.9 0 14.3-6.4 14.3-14.3 0-7.9-6.4-14.3-14.3-14.3h-145.4c-7.9 0-14.3 6.4-14.3 14.3 0 7.9 6.4 14.3 14.3 14.3z"/><path d="m22.9 303.4h257.3c7.9 0 14.2-6.4 14.2-14.2 0-7.9-6.4-14.2-14.2-14.2h-257.3c-7.9 0-14.2 6.4-14.2 14.2 0 7.8 6.4 14.2 14.2 14.2z"/><path d="m500 155.1v-.2c0-63.4-54.7-114.8-122.1-114.8-11.9 0-23.3 1.6-34.2 4.6-16.8-26.6-49.5-44.7-87.1-44.7-48.1 0-88.1 29.5-97.1 68.6-14.2-5.9-29.8-9.3-46.4-9.3-62.5.1-113.1 47.2-113.1 105.3 0 1.2.1 2.4.1 3.7 0 .7-.1 1.3-.1 2 0 15 3.4 29.3 9.4 42.1h474.2c10.4-16.9 16.4-36.4 16.4-57.3z"/></g></svg>